<?xml version="1.0" encoding="utf-8"?>
<!-- Generator: Adobe Illustrator 16.2.0, SVG Export Plug-In . SVG Version: 6.00 Build 0)  -->
<!DOCTYPE svg PUBLIC "-//W3C//DTD SVG 1.1//EN" "http://www.w3.org/Graphics/SVG/1.1/DTD/svg11.dtd">
<svg version="1.1" id="Layer_1" xmlns="http://www.w3.org/2000/svg" xmlns:xlink="http://www.w3.org/1999/xlink" x="0px" y="0px"
	 width="612px" height="792px" viewBox="0 0 612 792" enable-background="new 0 0 612 792" xml:space="preserve">
<image overflow="visible" width="118" height="102" xlink:href="MVI_3178_1913_black1.png" >
</image>
<polygon fill="none" stroke="#00FFFF" stroke-width="0.25" stroke-miterlimit="10" points="98,79 98,71 94,71 94,69 90,69 90,65 
	88,65 88,63 86,63 86,61 84,61 84,59 80,59 80,53 78,53 78,51 75,51 75,41 72,41 72,38 70,38 70,33 56,33 56,29 52,29 52,25 48,25 
	48,21 46,21 46,17 44,17 44,13 34,13 34,11 28,11 28,7 18,7 18,11 16,11 16,18 18,18 18,23 19,23 19,24.5 26,24.5 26,21 34,21 
	34,23 36,23 36,27 37,27 37,35 30,35 30,41 38,41 38,45 40,45 40,47 54,47 54,51 57,51 57,53 60,53 60,56 62,56 62,59 70,59 70,61 
	74,61 74,63 76,63 76,65 80,65 80,67 82,67 82,73 78,73 78,88 84,88 84,84 96,84 96,79 "/>
</svg>
