<?xml version="1.0" encoding="utf-8"?>
<!-- Generator: Adobe Illustrator 16.2.0, SVG Export Plug-In . SVG Version: 6.00 Build 0)  -->
<!DOCTYPE svg PUBLIC "-//W3C//DTD SVG 1.1//EN" "http://www.w3.org/Graphics/SVG/1.1/DTD/svg11.dtd">
<svg version="1.1" id="Layer_1" xmlns="http://www.w3.org/2000/svg" xmlns:xlink="http://www.w3.org/1999/xlink" x="0px" y="0px"
	 width="612px" height="792px" viewBox="0 0 612 792" enable-background="new 0 0 612 792" xml:space="preserve">
<image overflow="visible" width="111" height="108" xlink:href="MVI_3178_2453_kid1.png" >
</image>
<polygon fill="none" stroke="#00FFFF" stroke-width="0.25" stroke-miterlimit="10" points="26,98 46,98 46,92 50,92 50,90 56,90 
	56,82 58,82 58,74 62,74 62,60 64,60 64,56 68,56 68,52 74,52 74,32 78.5,32 78.5,30 80,30 80,20 78,20 78,18 76,18 76,16 72,16 
	72,14 60,14 60,16 56,16 56,14 54,14 54,10 46,10 46,8 38,8 38,10 34,10 34,12 14,12 14,14 10,14 10,22 12,22 12,24 26,24 26,20 
	46,20 46,22 50,22 50,38 48,38 48,42 46,42 46,46 42,46 42,48 40,48 40,56 36,56 36,62 34,62 34,68 30,68 30,74 26,74 26,78 24,78 
	24,80 22,80 22,84 18,84 18,90 14,90 14,94 18,94 18,97 22,97 22,92 26,92 26,88 30,88 30,84 34,84 34,82 36,82 36,74 42,74 42,70 
	48,70 48,76 46,76 46,80 44,80 44,82 42,82 42,88 34,88 34,92 30,92 30,94 28,94 28,96 26,96 "/>
</svg>
