<?xml version="1.0" encoding="utf-8"?>
<!-- Generator: Adobe Illustrator 16.2.0, SVG Export Plug-In . SVG Version: 6.00 Build 0)  -->
<!DOCTYPE svg PUBLIC "-//W3C//DTD SVG 1.1//EN" "http://www.w3.org/Graphics/SVG/1.1/DTD/svg11.dtd">
<svg version="1.1" id="Layer_1" xmlns="http://www.w3.org/2000/svg" xmlns:xlink="http://www.w3.org/1999/xlink" x="0px" y="0px"
	 width="612px" height="792px" viewBox="0 0 612 792" enable-background="new 0 0 612 792" xml:space="preserve">
<image overflow="visible" width="120" height="98" xlink:href="MVI_3178_602_black1.png" >
</image>
<polygon fill="none" stroke="#00FFFF" stroke-width="0.25" stroke-miterlimit="10" points="88,76 88,68 92,68 92,70 94,70 94,82 
	104.5,82 104.5,80 108,80 108,70 106,70 106,68 100,68 100,62 92,62 92,60 88,60 88,58 84,58 84,52 72,52 72,46 68,46 68,38 64,38 
	64,32 60,32 60,20 56,20 56,18 40,18 40,14 32,14 32,12 28,12 28,10 16,10 16,20 22,20 22,24 28,24 28,28 36,28 36,36 42,36 42,42 
	48,42 48,54 52,54 52,56 58,56 58,60 62,60 62,64 72,64 72,68 76,68 76,72 78,72 78,76 "/>
</svg>
