<?xml version="1.0" encoding="utf-8"?>
<!-- Generator: Adobe Illustrator 16.2.0, SVG Export Plug-In . SVG Version: 6.00 Build 0)  -->
<!DOCTYPE svg PUBLIC "-//W3C//DTD SVG 1.1//EN" "http://www.w3.org/Graphics/SVG/1.1/DTD/svg11.dtd">
<svg version="1.1" id="Layer_1" xmlns="http://www.w3.org/2000/svg" xmlns:xlink="http://www.w3.org/1999/xlink" x="0px" y="0px"
	 width="612px" height="792px" viewBox="0 0 612 792" enable-background="new 0 0 612 792" xml:space="preserve">
<image overflow="visible" width="114" height="97" xlink:href="MVI_3178_2297_kid1.png" >
</image>
<polygon fill="none" stroke="#00FFFF" stroke-width="0.25" stroke-miterlimit="10" points="53,76 64,76 64,74 66,74 66,71 80,71 
	80,87 86,87 86,85 88,85 88,81 92,81 92,77 95,77 95,66.5 88,66.5 88,35 90,35 90,30 96,30 96,23 100,23 100,11 88,11 88,9 86,9 
	86,7 76,7 76,11 74,11 74,13 72,13 72,17 68,17 68,21 65,21 65,25 62,25 62,27 58,27 58,35 44,35 44,31 40,31 40,29 38,29 38,23 
	28,23 28,25 24,25 24,27 22,27 22,33 20,33 20,43 4,43 4,59 10,59 10,61 12,61 12,63.5 16,63.5 16,66 26,66 26,61 28,61 28,58.5 
	30,58.5 30,45 36,45 36,47 40,47 40,49 44,49 44,68 48,68 48,72 53,72 "/>
</svg>
