<?xml version="1.0" encoding="utf-8"?>
<!-- Generator: Adobe Illustrator 16.2.0, SVG Export Plug-In . SVG Version: 6.00 Build 0)  -->
<!DOCTYPE svg PUBLIC "-//W3C//DTD SVG 1.1//EN" "http://www.w3.org/Graphics/SVG/1.1/DTD/svg11.dtd">
<svg version="1.1" id="Layer_1" xmlns="http://www.w3.org/2000/svg" xmlns:xlink="http://www.w3.org/1999/xlink" x="0px" y="0px"
	 width="612px" height="792px" viewBox="0 0 612 792" enable-background="new 0 0 612 792" xml:space="preserve">
<image overflow="visible" width="123" height="60" xlink:href="MVI_3177_175_woman_black.png" >
</image>
<polygon fill="none" stroke="#00FFFF" stroke-width="0.25" stroke-miterlimit="10" points="68,30 70,30 70,27 72,27 72,24 74,24 
	74,22 78,22 78,20 80,20 80,18 86,18 86,16 88,16 88,4 102,4 102,11 103,11 103,14 102,14 102,20 104,20 104,22 106,22 106,24 
	108,24 108,30 92,30 92,32 88,32 88,33 86,33 86,34 80,34 80,36 76,36 76,38 68,38 68,40 62,40 62,42 54,42 54,44 46,44 46,46 
	30,46 30,48 14,48 14,44 18,44 18,42 28,42 28,40 38,40 38,38 44,38 44,36 52,36 52,34 58,34 58,32 68,32 "/>
</svg>
