<?xml version="1.0" encoding="utf-8"?>
<!-- Generator: Adobe Illustrator 16.0.0, SVG Export Plug-In . SVG Version: 6.00 Build 0)  -->
<!DOCTYPE svg PUBLIC "-//W3C//DTD SVG 1.1//EN" "http://www.w3.org/Graphics/SVG/1.1/DTD/svg11.dtd">
<svg version="1.1" id="Layer_1" xmlns="http://www.w3.org/2000/svg" xmlns:xlink="http://www.w3.org/1999/xlink" x="0px" y="0px"
	 width="612px" height="792px" viewBox="0 0 612 792" enable-background="new 0 0 612 792" xml:space="preserve">
<image overflow="visible" enable-background="new    " width="60" height="49" xlink:href="MVI_4635_Frame1_black_flippers.png" >
</image>
<polygon fill="none" stroke="#FFFFFF" stroke-width="0.25" points="18.5,12.5 19.5,12.5 19.5,10.5 20.5,10.5 20.5,8.5 21.5,8.5 
	21.5,6.5 24.5,6.5 24.5,7.5 25.5,7.5 25.5,8.5 28.5,8.5 28.5,9.5 29.5,9.5 29.5,10.5 31.5,10.5 31.5,11.5 33.5,11.5 33.5,12.5 
	34.5,12.5 34.5,13.5 35.5,13.5 35.5,14.5 37.5,14.5 37.5,15.5 35.5,15.5 35.5,18.5 36.5,18.5 36.5,19.5 25.5,19.5 25.5,22.5 
	30.5,22.5 30.5,23.5 17.5,23.5 17.5,14.5 18.5,14.5 "/>
<polygon fill="none" stroke="#FFFF00" stroke-width="0.25" points="16.5,12.5 17.5,12.5 17.5,10.5 18.5,10.5 18.5,8.5 19.5,8.5 
	19.5,4.5 23.5,4.5 23.5,5.5 25.5,5.5 25.5,6.5 28.5,6.5 28.5,7.5 29.5,7.5 29.5,8.5 31.5,8.5 31.5,9.5 32.5,9.5 32.5,10.5 
	34.5,10.5 34.5,11.5 35.5,11.5 35.5,12.5 37.5,12.5 37.5,14.5 39.5,14.5 39.5,16.5 40.5,16.5 40.5,18.5 43.5,18.5 43.5,26.5 
	46.5,26.5 46.5,28.5 49.5,28.5 49.5,34.5 47.5,34.5 47.5,36.5 44.5,36.5 44.5,34.5 43.5,34.5 43.5,32.5 42.5,32.5 42.5,29.5 
	40.5,29.5 40.5,28.5 38.5,28.5 38.5,27.5 36.5,27.5 36.5,26.5 34.5,26.5 34.5,25.5 15.5,25.5 15.5,14.5 16.5,14.5 "/>
</svg>
