<?xml version="1.0" encoding="utf-8"?>
<!-- Generator: Adobe Illustrator 16.0.0, SVG Export Plug-In . SVG Version: 6.00 Build 0)  -->
<!DOCTYPE svg PUBLIC "-//W3C//DTD SVG 1.1//EN" "http://www.w3.org/Graphics/SVG/1.1/DTD/svg11.dtd">
<svg version="1.1" id="Layer_1" xmlns="http://www.w3.org/2000/svg" xmlns:xlink="http://www.w3.org/1999/xlink" x="0px" y="0px"
	 width="640px" height="476px" viewBox="0 0 640 476" enable-background="new 0 0 640 476" xml:space="preserve">
<image overflow="visible" enable-background="new    " width="640" height="476" xlink:href="MVI_3177_0127_640x476.png" >
</image>
<polygon fill="none" stroke="#0000FF" stroke-width="0.25" points="238.5,316.5 296.5,270.5 364.5,224.5 346.5,202.5 388.5,182.5 
	418.5,182.5 450.5,160.5 408.5,162.5 392.5,166.5 400.193,168.808 394.5,178.5 370.5,178.5 370.5,174.5 38.5,276.5 2.5,290.5 
	2.5,302.5 "/>
<polygon fill="none" stroke="#FFFF00" stroke-width="0.25" points="2.5,306.5 636.5,352.5 640,476 2,475.5 "/>
<polygon fill="none" stroke="#0000FF" stroke-width="0.25" points="2.5,274.5 134.5,234.5 131.364,218.5 2.5,240.5 "/>
<polygon fill="none" stroke="#0000FF" stroke-width="0.25" points="202.5,198.5 204.5,210.5 210.082,213.76 377.447,164.261 
	360.5,162.5 "/>
<polygon fill="none" stroke="#FFFFFF" stroke-width="0.25" points="2.5,224.5 148.5,196.5 254.5,176.5 318.5,164.5 242.5,166.5 
	130.5,180.5 1.5,197.5 "/>
<polygon fill="none" stroke="#0000FF" stroke-width="0.25" points="266.5,320.5 516.5,338.5 522.5,220.5 505.88,219.531 
	506.5,234.5 486.5,234.5 486.5,280.5 446.5,282.5 428.5,292.5 402.5,288.5 406.5,270.5 470.5,218.5 392.5,220.5 "/>
<polygon fill="none" stroke="#0000FF" stroke-width="0.25" points="394.5,218.5 522.5,218.5 520.5,168.5 461.5,168.5 "/>
<polygon fill="none" stroke="#0000FF" stroke-width="0.25" points="552.5,340.5 556.5,196.5 638.5,266.5 638.5,346.5 "/>
<polygon fill="none" stroke="#0000FF" stroke-width="0.25" points="558.5,168.5 591,164.5 604.5,174.5 624.5,174.5 628.5,168.5 
	638.5,172.5 639.5,244.5 558.5,184.5 "/>
<polygon fill="none" stroke="#FFFF00" stroke-width="0.25" points="522.5,338.5 548.5,340.5 556.5,26.5 550.5,20.5 536.5,20.5 
	528.5,32.5 526.5,44.5 522.5,38.5 516.5,42.5 518.5,48.5 514.5,52.5 514.5,98.5 518.5,136.5 520.5,150.5 524.5,168.5 526.5,196.5 
	"/>
<polygon fill="none" stroke="#FFFF00" stroke-width="0.25" points="1.5,193.5 240.5,162.5 516.5,152.5 640,148 640,0 0,0 "/>
</svg>
