<?xml version="1.0" encoding="utf-8"?>
<!-- Generator: Adobe Illustrator 16.0.0, SVG Export Plug-In . SVG Version: 6.00 Build 0)  -->
<!DOCTYPE svg PUBLIC "-//W3C//DTD SVG 1.1//EN" "http://www.w3.org/Graphics/SVG/1.1/DTD/svg11.dtd">
<svg version="1.1" id="Layer_1" xmlns="http://www.w3.org/2000/svg" xmlns:xlink="http://www.w3.org/1999/xlink" x="0px" y="0px"
	 width="612px" height="792px" viewBox="0 0 612 792" enable-background="new 0 0 612 792" xml:space="preserve">
<image overflow="visible" enable-background="new    " width="640" height="480" xlink:href="mvi_4635_640x480_Frame1.png" >
</image>
<polygon fill="none" stroke="#0000FF" stroke-width="0.25" points="1.369,326.207 34.15,332.671 37.025,353.458 69.879,365.683 
	82.359,402.358 5.369,384.207 "/>
<path fill="none" stroke="#FFFF00" stroke-width="0.25" d="M378,370"/>
<polygon fill="none" stroke="#0000FF" stroke-width="0.25" points="237.113,372.982 468.211,419.677 193.659,419.677 
	203.336,411.058 237.113,404.141 "/>
<polygon fill="none" stroke="#0000FF" stroke-width="0.25" points="259.115,301.239 570.595,344.028 584.348,419.677 
	539.561,418.396 220.148,356.251 "/>
<polygon fill="none" stroke="#0000FF" stroke-width="0.25" points="297.318,258.187 553.278,282.382 562.956,328.994 
	274.881,291.624 "/>
<polygon fill="none" stroke="#0000FF" stroke-width="0.25" points="1.369,267.868 242.816,298.685 196.463,352.933 1.369,312.947 
	"/>
<polygon fill="none" stroke="#0000FF" stroke-width="0.25" points="1.369,228.388 276.943,254.875 250.711,286.457 1.369,253.602 
	"/>
<polygon fill="none" stroke="#0000FF" stroke-width="0.25" points="1.369,189.662 314.893,214.632 290.698,236.28 237.468,229.658 
	227.789,241.883 1.369,220 "/>
<polygon fill="none" stroke="#0000FF" stroke-width="0.25" points="332.76,216.903 539.599,235.262 558.883,267.868 
	314.893,247.486 "/>
<polygon fill="none" stroke="#0000FF" stroke-width="0.25" points="349.695,189.662 518.133,199.091 518.388,221.758 
	338.785,208.337 "/>
<polygon fill="none" stroke="#0000FF" stroke-width="0.25" points="1.369,166.481 331.191,187.875 324.06,202.647 1.369,181.763 "/>
<polygon fill="none" stroke="#0000FF" stroke-width="0.25" points="3.665,145.852 322.277,166.481 317.814,179.328 1.369,156.294 
	"/>
<polygon fill="none" stroke="#0000FF" stroke-width="0.25" points="364.171,166.481 522.716,176.669 519.659,191.186 
	371.688,178.834 368.885,174.631 361.754,172.849 "/>
<polygon fill="none" stroke="#FFFF00" stroke-width="0.25" points="335.539,169.445 335.438,174.519 343.708,174.621 
	343.378,172.642 338.735,169.775 "/>
<polygon fill="none" stroke="#FFFF00" stroke-width="0.25" points="1.369,393.163 125.5,418.163 1.369,418.163 "/>
<polygon fill="none" stroke="#FFFF00" stroke-width="0.25" points="204.036,383.5 217.917,386.917 217.583,394 202.834,398 "/>
<polygon fill="none" stroke="#FFFF00" stroke-width="0.25" points="173.667,399.75 191.5,404.158 189.917,410 183.167,414.75 
	166.083,413.167 "/>
<polygon fill="none" stroke="#FFFF00" stroke-width="0.25" points="640,169.445 640,364.511 610.17,364.511 551.422,169.445 "/>
<polygon fill="none" stroke="#FFFF00" stroke-width="0.25" points="637.503,63.182 637.503,166.481 593.17,166.481 593.17,63.182 
	"/>
<polygon fill="none" stroke="#FFFF00" stroke-width="0.25" points="590.17,61.185 590.17,90.186 303.169,90.186 303.169,61.185 "/>
</svg>
