<?xml version="1.0" encoding="utf-8"?>
<!-- Generator: Adobe Illustrator 16.0.0, SVG Export Plug-In . SVG Version: 6.00 Build 0)  -->
<!DOCTYPE svg PUBLIC "-//W3C//DTD SVG 1.1//EN" "http://www.w3.org/Graphics/SVG/1.1/DTD/svg11.dtd">
<svg version="1.1" id="Layer_1" xmlns="http://www.w3.org/2000/svg" xmlns:xlink="http://www.w3.org/1999/xlink" x="0px" y="0px"
	 width="612px" height="792px" viewBox="0 0 612 792" enable-background="new 0 0 612 792" xml:space="preserve">
<image overflow="visible" enable-background="new    " width="640" height="480" xlink:href="MVI_3179_frame1.png" >
</image>
<polygon fill="none" stroke="#0000FF" stroke-width="0.25" points="204,260.173 422,260.173 422,316 206.555,318 "/>
<polygon fill="none" stroke="#0000FF" stroke-width="0.25" points="452,258 454,294 488,294 506,306 506,310 506,316 620,316 
	620,298 634,288 636,254 "/>
<polygon fill="none" stroke="#FFFF00" stroke-width="0.25" points="204,326 422,322 638,320 640,480 210,476 "/>
<path fill="none" stroke="#FFFF00" stroke-width="0.25" d="M378,370"/>
<polygon fill="none" stroke="#FFFF00" stroke-width="0.25" points="452,300 484,300 496,306 480,310 478,320 452,320 "/>
<polygon fill="none" stroke="#FFFF00" stroke-width="0.25" points="450,320 454,80 430,80 426,320 "/>
<polygon fill="none" stroke="#FFFF00" stroke-width="0.25" points="208,478 188,70 90,72 88.67,1.33 0,0 0,480 "/>
<polygon fill="none" stroke="#FFFF00" stroke-width="0.25" points="196,188 424,184 460,192 639.33,220 640,0 88.67,1.33 94,70 
	190,70 "/>
</svg>
