<?xml version="1.0" encoding="utf-8"?>
<!-- Generator: Adobe Illustrator 16.2.0, SVG Export Plug-In . SVG Version: 6.00 Build 0)  -->
<!DOCTYPE svg PUBLIC "-//W3C//DTD SVG 1.1//EN" "http://www.w3.org/Graphics/SVG/1.1/DTD/svg11.dtd">
<svg version="1.1" id="Layer_1" xmlns="http://www.w3.org/2000/svg" xmlns:xlink="http://www.w3.org/1999/xlink" x="0px" y="0px"
	 width="612px" height="792px" viewBox="0 0 612 792" enable-background="new 0 0 612 792" xml:space="preserve">
<image overflow="visible" enable-background="new    " width="90" height="66" xlink:href="MVI_3178_681_kid1.png"  transform="matrix(1 0 0 1 -2.439916e-004 2.441406e-004)">
</image>
<polygon opacity="0.7" fill="none" stroke="#00FF00" stroke-width="0.25" stroke-miterlimit="10" points="29,55 53,55 53,53 51,53 
	51,51 43,51 43,47 41,47 41,39 39,39 39,31 37,31 37,27 35,27 35,25 33,25 33,21 27,21 27,23 23,23 23,25 25,25 25,26 27,26 27,27 
	28,27 28,33 29,33 "/>
<polygon fill="none" stroke="#FFFF00" stroke-width="0.25" stroke-miterlimit="10" points="29,57 61,57 61,53 59,53 59,51 57,51 
	57,42 47,42 47,40 43,40 43,38 41,38 41,35 39,35 39,27 37,27 37,25 35,25 35,21 25,21 25,23 19,23 19,25 15,25 15,27 12.5,27 
	12.5,29 9,29 9,31 5,31 5,35 12,35 12,33 15.5,33 15.5,31 25,31 25,33 27,33 27,55 29,55 "/>
<polygon opacity="0.7" fill="none" stroke="#FFFF00" stroke-width="0.25" stroke-miterlimit="10" points="45,38 45,35 49,35 
	49,30.5 47,30.5 47,12 49,12 49,11 51,11 51,7 47,7 47,11 41,11 41,15 39,15 39,35 41,35 41,38 "/>
<polygon opacity="0.7" fill="none" stroke="#FFFF00" stroke-width="0.25" stroke-miterlimit="10" points="67,25 67,9 65,9 65,7 
	62,7 62,9 59,9 59,15 61,15 61,21 59,21 59,23 57,23 57,25 "/>
</svg>
