<?xml version="1.0" encoding="utf-8"?>
<!-- Generator: Adobe Illustrator 16.2.0, SVG Export Plug-In . SVG Version: 6.00 Build 0)  -->
<!DOCTYPE svg PUBLIC "-//W3C//DTD SVG 1.1//EN" "http://www.w3.org/Graphics/SVG/1.1/DTD/svg11.dtd">
<svg version="1.1" id="Layer_1" xmlns="http://www.w3.org/2000/svg" xmlns:xlink="http://www.w3.org/1999/xlink" x="0px" y="0px"
	 width="612px" height="792px" viewBox="0 0 612 792" enable-background="new 0 0 612 792" xml:space="preserve">
<image overflow="visible" enable-background="new    " width="158" height="107" xlink:href="MVI_3178_444_black1.png"  transform="matrix(1 0 0 1 -4.0002 2.441406e-004)">
</image>
<polygon opacity="0.7" fill="none" stroke="#00FF00" stroke-width="0.25" stroke-miterlimit="10" points="63,56 69,56 69,54 73,54 
	73,52 75,52 75,50 77,50 77,48 80,48 80,46 83,46 83,44 85,44 85,41 87,41 87,38 97,38 97,40 105,40 105,42 111,42 111,40 107,40 
	107,38 103,38 103,36 99,36 99,34 97,34 97,32 91,32 91,34 89,34 89,36 85,36 85,38 83,38 83,40 79,40 79,42 75,42 75,44 73,44 
	73,45 73,46 71,46 71,48 69,48 69,50 65,50 65,52 61,52 61,54 63,54 "/>
<polygon opacity="0.7" fill="none" stroke="#FFFF00" stroke-width="0.25" stroke-miterlimit="10" points="65,58 71,58 71,56 75,56 
	75,52 79,52 79,50 81,50 81,48 83,48 83,46 85,46 85,44 87,44 87,42 89,42 89,40 97,40 97,42 105,42 105,44 109,44 109,46 113,46 
	113,48 115,48 115,50 117,50 117,52 119,52 119,50 121,50 121,48 123,48 123,46 121,46 121,44 119,44 119,42 115,42 115,40 111,40 
	111,38 109,38 109,36 105,36 105,34 101,34 101,32 97,32 97,30 91,30 91,32 87,32 87,34 85,34 85,36 81,36 81,38 79,38 79,40 75,40 
	75,42 71,42 71,44 69,44 69,46 67,46 67,48 65,48 65,50 61,50 61,52 59,52 59,54 61,54 61,56 65,56 "/>
<polygon opacity="0.7" fill="none" stroke="#FFFF00" stroke-width="0.25" stroke-miterlimit="10" points="43,42 46,42 46,44 49,44 
	49,46 55,46 55,44 53,44 53,42 47,42 47,36 45,36 45,34 41,34 41,32 39,32 39,30 37,30 37,28 33,28 33,26 29,26 29,30 31,30 31,32 
	35,32 35,36 37,36 37,40 43,40 "/>
<polygon fill="none" stroke="#FFFF00" stroke-width="0.25" stroke-miterlimit="10" points="9,24 9,26 13,26 13,28 15,28 15,30 
	17,30 17,32 19,32 19,34 21,34 21,36 25,36 25,38 29,38 29,46 31,46 31,50 25,50 25,44 21,44 21,40 17,40 17,38 13,38 13,34 11,34 
	11,32 9,32 9,30 5,30 5,26 7,26 7,24 "/>
<polygon opacity="0.7" fill="none" stroke="#FFFF00" stroke-width="0.25" stroke-miterlimit="10" points="49,76 49,82 53,82 53,84 
	57,84 57,88 59,88 59,90 63,90 63,92 67,92 67,97.5 76.5,97.5 76.5,100 65,100 65,96.5 62.5,96.5 62.5,94 61,94 61,92 57,92 57,90 
	49,90 49,88 46,88 46,85.5 41,85.5 41,74 51,74 51,76 "/>
</svg>
