<?xml version="1.0" encoding="utf-8"?>
<!-- Generator: Adobe Illustrator 16.2.0, SVG Export Plug-In . SVG Version: 6.00 Build 0)  -->
<!DOCTYPE svg PUBLIC "-//W3C//DTD SVG 1.1//EN" "http://www.w3.org/Graphics/SVG/1.1/DTD/svg11.dtd">
<svg version="1.1" id="Layer_1" xmlns="http://www.w3.org/2000/svg" xmlns:xlink="http://www.w3.org/1999/xlink" x="0px" y="0px"
	 width="612px" height="792px" viewBox="0 0 612 792" enable-background="new 0 0 612 792" xml:space="preserve">
<image overflow="visible" enable-background="new    " width="75" height="48" xlink:href="MVI_3177_3430_right1.png"  transform="matrix(1 0 0 1 -2.439916e-004 2.441406e-004)">
</image>
<polygon opacity="0.7" fill="none" stroke="#00FF00" stroke-width="0.25" stroke-miterlimit="10" points="63,32 63,28 61,28 61,26 
	59,26 59,24 57,24 57,22 55,22 55,20 53,20 53,18 51,18 51,16 49,16 49,14 47,14 47,12 29,12 29,14 45,14 45,16 47,16 47,19 47,20 
	49,20 49,24 51,24 51,26 53,26 53,28 53,32 "/>
<polygon opacity="0.7" fill="none" stroke="#FFFF00" stroke-width="0.25" stroke-miterlimit="10" points="48.5,36 63,36 63,34 
	67,34 67,30 65,30 65,28 63,28 63,26 61,26 61,24 59,24 59,22 57,22 57,20 55,20 55,18 53,18 53,16 51,16 51,14 49,14 49,12 43,12 
	43,10 27,10 27,12 23,12 23,14 25,14 25,16 43,16 43,18.5 45,18.5 45,20 47,20 47,22 47,24 49,24 49,26 51,26 51,30 41,30 41,31 
	39,31 39,34 48.5,34 "/>
</svg>
