<?xml version="1.0" encoding="utf-8"?>
<!-- Generator: Adobe Illustrator 16.2.0, SVG Export Plug-In . SVG Version: 6.00 Build 0)  -->
<!DOCTYPE svg PUBLIC "-//W3C//DTD SVG 1.1//EN" "http://www.w3.org/Graphics/SVG/1.1/DTD/svg11.dtd">
<svg version="1.1" id="Layer_1" xmlns="http://www.w3.org/2000/svg" xmlns:xlink="http://www.w3.org/1999/xlink" x="0px" y="0px"
	 width="612px" height="792px" viewBox="0 0 612 792" enable-background="new 0 0 612 792" xml:space="preserve">
<image overflow="visible" enable-background="new    " width="75" height="66" xlink:href="MVI_3178_413_black1.png"  transform="matrix(1 0 0 1 -2.439916e-004 2.441406e-004)">
</image>
<polygon opacity="0.7" fill="none" stroke="#00FF00" stroke-width="0.25" stroke-miterlimit="10" points="33,25 33,21 31,21 31,19 
	29,19 29,17 27,17 27,15 25,15 25,13 21,13 21,17 23,17 23,18 24,18 24,19 25,19 25,23 27,23 27,25 "/>
<polygon opacity="0.7" fill="none" stroke="#FFFF00" stroke-width="0.25" stroke-miterlimit="10" points="29,33 29,29 30,29 30,28 
	31,28 31,27 33,27 33,25 35,25 35,21 33,21 33,19 31,19 31,15 29,15 29,13 27,13 27,11 13,11 13,13 7,13 7,17 9,17 9,15 19,15 
	19,19 21,19 21,21 23,21 23,25 20,25 20,28 17,28 17,31 21,31 21,33 "/>
<polygon opacity="0.7" fill="none" stroke="#FFFF00" stroke-width="0.25" stroke-miterlimit="10" points="49,45 51,45 51,47 55,47 
	55,50.5 59,50.5 59,56.5 65.5,56.5 65.5,49 63,49 63,47 59,47 59,45 55,45 55,43 49,43 "/>
</svg>
