<?xml version="1.0" encoding="utf-8"?>
<!-- Generator: Adobe Illustrator 16.2.0, SVG Export Plug-In . SVG Version: 6.00 Build 0)  -->
<!DOCTYPE svg PUBLIC "-//W3C//DTD SVG 1.1//EN" "http://www.w3.org/Graphics/SVG/1.1/DTD/svg11.dtd">
<svg version="1.1" id="Layer_1" xmlns="http://www.w3.org/2000/svg" xmlns:xlink="http://www.w3.org/1999/xlink" x="0px" y="0px"
	 width="612px" height="792px" viewBox="0 0 612 792" enable-background="new 0 0 612 792" xml:space="preserve">
<image overflow="visible" enable-background="new    " width="46" height="51" xlink:href="MVI_3178_2107_leftman1.png"  transform="matrix(1 0 0 1 -2.439916e-004 2.441406e-004)">
</image>
<polygon opacity="0.7" fill="none" stroke="#00FF00" stroke-width="0.25" stroke-miterlimit="10" points="4,25 16,25 16,23 26,23 
	26,21 32,21 32,19 37,19 37,13 22,13 22,14 20,14 20,15 8,15 8,17 4,17 "/>
<polygon opacity="0.7" fill="none" stroke="#FFFF00" stroke-width="0.25" stroke-miterlimit="10" points="18,29 18,25 30,25 30,23 
	37,23 37,13 22,13 22,11 16,11 16,13 8,13 8,15 4,15 4,19 0,19 0,29.1 "/>
</svg>
