<?xml version="1.0" encoding="utf-8"?>
<!-- Generator: Adobe Illustrator 16.2.0, SVG Export Plug-In . SVG Version: 6.00 Build 0)  -->
<!DOCTYPE svg PUBLIC "-//W3C//DTD SVG 1.1//EN" "http://www.w3.org/Graphics/SVG/1.1/DTD/svg11.dtd">
<svg version="1.1" id="Layer_1" xmlns="http://www.w3.org/2000/svg" xmlns:xlink="http://www.w3.org/1999/xlink" x="0px" y="0px"
	 width="612px" height="792px" viewBox="0 0 612 792" enable-background="new 0 0 612 792" xml:space="preserve">
<image overflow="visible" enable-background="new    " width="113" height="95" xlink:href="MVI_3176_1439_kid1.png"  transform="matrix(1 0 0 1 -2.439916e-004 2.441406e-004)">
</image>
<polygon opacity="0.7" fill="none" stroke="#00FF00" stroke-width="0.25" stroke-miterlimit="10" points="70,38 70,39 73,39 73,40 
	75,40 75,42 77,42 77,44 81,44 81,48 83,48 83,50 85,50 85,52 77,52 77,50 73.1,50 73,48 69,48 69,44 67,44 67,42 65,42 65,40 
	63,40 63,38 57,38 57,36 55,36 55,34 60,34 60,36 63,36 63,37 64.5,37 64.5,38 "/>
<polygon fill="none" stroke="#FFFF00" stroke-width="0.25" stroke-miterlimit="10" points="87,46 85,46 85,44 83,44 83,42 81,42 
	79,42 79,40 77,40 75,40 75,38 69,38 69,36 62.5,36 62.5,34 61,34 61,32 59,32 57,32 57,30 55,30 55,28 51,28 49,28 49,26 47,26 
	47,24 25,24 25,26 23,26 23,28 35,28 35,30 39,30 41,30 41,32 45,32 45,34 47,34 47,36 51,36 51,38 53,38 55,38 55,40 57,40 57,42 
	59,42 59,46 61,46 61,48 63,48 63,50 65,50 73,50 73,52 87,52 "/>
</svg>
