<?xml version="1.0" encoding="utf-8"?>
<!-- Generator: Adobe Illustrator 16.2.0, SVG Export Plug-In . SVG Version: 6.00 Build 0)  -->
<!DOCTYPE svg PUBLIC "-//W3C//DTD SVG 1.1//EN" "http://www.w3.org/Graphics/SVG/1.1/DTD/svg11.dtd">
<svg version="1.1" id="Layer_1" xmlns="http://www.w3.org/2000/svg" xmlns:xlink="http://www.w3.org/1999/xlink" x="0px" y="0px"
	 width="612px" height="792px" viewBox="0 0 612 792" enable-background="new 0 0 612 792" xml:space="preserve">
<image overflow="visible" enable-background="new    " width="86" height="82" xlink:href="MVI_3178_631_kid1.png"  transform="matrix(1 0 0 1 -2.439916e-004 2.441406e-004)">
</image>
<polygon opacity="0.7" fill="none" stroke="#00FF00" stroke-width="0.25" stroke-miterlimit="10" points="50,34 50,28 46,28 46,26 
	42,26 42,18 40,18 40,14 38,14 38,12 38,10 36,10 36,8 18,8 18,10 10,10 10,12 28,12 28,14 34,14 34,18 36,18 36,34 "/>
<polygon opacity="0.7" fill="none" stroke="#FFFF00" stroke-width="0.25" stroke-miterlimit="10" points="50,36 62,36 62,28 54,28 
	54,26 50,26 50,24 48,24 48,22 44,22 44,20 42,20 42,14 40,14 40,10 38,10 38,8 10,8 10,14 30,14 30,16 32,16 32,20 34,20 34,30 
	36,30 36,36 38,36 38,34 50,34 "/>
<polygon opacity="0.7" fill="none" stroke="#FFFF00" stroke-width="0.25" stroke-miterlimit="10" points="64,66 62,66 62,72 60,72 
	60,74 47.5,74 47.5,70 50,70 50,68 54,68 54,62 58,62 58,56 54,56 54,50 50,50 50,48 54,48 54,46 58,46 58,48 62,48 62,52 64,52 "/>
<polygon opacity="0.7" fill="none" stroke="#FFFF00" stroke-width="0.25" stroke-miterlimit="10" points="54,16 58,16 58,14 60,14 
	60,10 64,10 64,8 58,8 58,10 52,10 52,14 50,14 50,20 54,20 "/>
<polygon opacity="0.7" fill="none" stroke="#FFFF00" stroke-width="0.25" stroke-miterlimit="10" points="66,12 70,12 70,8 76,8 
	76,13 74,13 74,14 72,14 72,18 68,18 68,22 66,22 "/>
</svg>
