<?xml version="1.0" encoding="utf-8"?>
<!-- Generator: Adobe Illustrator 16.2.0, SVG Export Plug-In . SVG Version: 6.00 Build 0)  -->
<!DOCTYPE svg PUBLIC "-//W3C//DTD SVG 1.1//EN" "http://www.w3.org/Graphics/SVG/1.1/DTD/svg11.dtd">
<svg version="1.1" id="Layer_1" xmlns="http://www.w3.org/2000/svg" xmlns:xlink="http://www.w3.org/1999/xlink" x="0px" y="0px"
	 width="612px" height="792px" viewBox="0 0 612 792" enable-background="new 0 0 612 792" xml:space="preserve">
<image overflow="visible" enable-background="new    " width="137" height="88" xlink:href="MVI_3178_1362_kid1.png"  transform="matrix(1 0 0 1 -2.439916e-004 2.441406e-004)">
</image>
<polygon opacity="0.7" fill="none" stroke="#00FF00" stroke-width="0.25" stroke-miterlimit="10" points="65,43 79,43 79,41 77,41 
	77,39 75,39 75,37 71,37 71,35 69,35 69,33 67,33 67,31 63,31 63,29 60,29 60,27 55,27 55,25 49,25 49,23 45,23 45,21 41,21 41,19 
	37,19 37,17 35,17 35,16 33,16 33,15 29,15 29,14 25,14 25,17 29,17 29,19 33,19 35,19 35,21 37,21 37,23 41,23 41,25 45,25 45,27 
	49,27 49,29 53,29 53,31 59,31 59,33 61,33 61,39 65,39 "/>
<polygon opacity="0.7" fill="none" stroke="#FFFF00" stroke-width="0.25" stroke-miterlimit="10" points="79,41 81,41 81,39 77,39 
	77,37 75,37 75,35 71,35 71,31 67,31 67,29 63,29 63,27 57,27 57,25 51,25 51,23 47,23 47,21 43,21 43,19 39,19 39,17 37,17 37,15 
	31,15 31,13 23,13 23,11 17,11 17,13 19,13 19,15 25,15 25,17 29,17 29,19 33,19 33,21 37,21 37,23 41,23 41,25 43,25 43,27 47,27 
	47,29 51,29 51,31 57,31 57,33 59,33 59,35 61,35 61,39 65,39 65,43 79,43 "/>
<polygon opacity="0.7" fill="none" stroke="#FFFF00" stroke-width="0.25" stroke-miterlimit="10" points="91,55 97,55 97,57 101,57 
	101,59 105,59 105,61 109,61 109,63 127,63 127,67 129,67 129,69 131,69 131,71 137,71.1 137,76.9 133,77 133,75 127,75 127,73 
	117,73 117,71 109,71 109,69 103,69 103,67 95,67 95,65 91,65 "/>
</svg>
