<?xml version="1.0" encoding="utf-8"?>
<!-- Generator: Adobe Illustrator 16.2.0, SVG Export Plug-In . SVG Version: 6.00 Build 0)  -->
<!DOCTYPE svg PUBLIC "-//W3C//DTD SVG 1.1//EN" "http://www.w3.org/Graphics/SVG/1.1/DTD/svg11.dtd">
<svg version="1.1" id="Layer_1" xmlns="http://www.w3.org/2000/svg" xmlns:xlink="http://www.w3.org/1999/xlink" x="0px" y="0px"
	 width="612px" height="792px" viewBox="0 0 612 792" enable-background="new 0 0 612 792" xml:space="preserve">
<image overflow="visible" enable-background="new    " width="65" height="56" xlink:href="MVI_3176_1519_kid1.png"  transform="matrix(1 0 0 1 -2.439916e-004 2.441406e-004)">
</image>
<polygon fill="none" stroke="#00FF00" stroke-width="0.25" stroke-miterlimit="10" points="11,28 19,28 19,22 21,22 21,20 23,20 
	23,18 27,18 27,16 29,16 29,14 31,14 31,12 35,12 35,10 33,10 29,10 29,12 27,12 27,14 23,14 23,16 21,16 21,18 17,18 17,20 13,20 
	13,24 11,24 "/>
<polygon opacity="0.7" fill="none" stroke="#FFFF00" stroke-width="0.25" stroke-miterlimit="10" points="21,28 21,22 23,22 23,20 
	25,20 25,18 27,18 27,16 29,16 29,14 33,14 33,12 37,12 37,10 39,10 39,8 45,8 45,7 47,7 47,6 49,6 49,4 42,4 42,6 35,6 35,8 31,8 
	31,10 27,10 27,12 25,12 25,14 23,14 23,16 19,16 19,18 17,18 17,20 13,20 13,22 11,22 11,24 11,28 "/>
<polygon fill="none" stroke="#FFFF00" stroke-width="0.25" stroke-miterlimit="10" points="15,44 25,44 25,42 39,42 39,44 41,44 
	41,46 43,46 43,40 41,40 41,38 37,38 37,36 33,36 33,34 29,34 29,32 23,32 23,36 21,36 21,40 13,40 13,42 15,42 "/>
</svg>
