<?xml version="1.0" encoding="utf-8"?>
<!-- Generator: Adobe Illustrator 16.2.0, SVG Export Plug-In . SVG Version: 6.00 Build 0)  -->
<!DOCTYPE svg PUBLIC "-//W3C//DTD SVG 1.1//EN" "http://www.w3.org/Graphics/SVG/1.1/DTD/svg11.dtd">
<svg version="1.1" id="Layer_1" xmlns="http://www.w3.org/2000/svg" xmlns:xlink="http://www.w3.org/1999/xlink" x="0px" y="0px"
	 width="612px" height="792px" viewBox="0 0 612 792" enable-background="new 0 0 612 792" xml:space="preserve">
<image overflow="visible" enable-background="new    " width="100" height="56" xlink:href="MVI_3177_2959_leftman1.png"  transform="matrix(1 0 0 1 -2.439916e-004 2.441406e-004)">
</image>
<polygon opacity="0.7" fill="none" stroke="#00FF00" stroke-width="0.25" points="70,17 70,15 76,15 76,19 82,19 82,21 84,21 84,25 
	82,25 82,27 78,27 78,29 66,29 66,31 58,31 58,23 60,23 60,21 62,21 62,19 67,19 67,17 "/>
<polygon opacity="0.7" fill="none" stroke="#FFFF00" stroke-width="0.25" points="52,33 56,33 56,35 66,35 66,33 74,33 74,31 78,31 
	78,29 82,29 82,27 88,27 88,21 84,21 84,19 80,19 80,17 82,17 82,13 80,13 80,11 68,11 68,15 66,15 66,17 62,17 62,19 60,19 60,21 
	58,21 58,23 56,23 56,25 54,25 54,31 52,31 "/>
<polygon opacity="0.7" fill="none" stroke="#FFFF00" stroke-width="0.25" points="10,49 16.5,49 16.5,47 24,47 24,45 32,45 32,43 
	38,43 38,41 44,41 44,39 39,39 39,37 32,37 32,39 18,39 18,43 6.5,43 6.5,45 4,45 4,47.5 10,47.5 "/>
</svg>
