<?xml version="1.0" encoding="utf-8"?>
<!-- Generator: Adobe Illustrator 16.2.0, SVG Export Plug-In . SVG Version: 6.00 Build 0)  -->
<!DOCTYPE svg PUBLIC "-//W3C//DTD SVG 1.1//EN" "http://www.w3.org/Graphics/SVG/1.1/DTD/svg11.dtd">
<svg version="1.1" id="Layer_1" xmlns="http://www.w3.org/2000/svg" xmlns:xlink="http://www.w3.org/1999/xlink" x="0px" y="0px"
	 width="612px" height="792px" viewBox="0 0 612 792" enable-background="new 0 0 612 792" xml:space="preserve">
<image overflow="visible" enable-background="new    " width="110" height="108" xlink:href="MVI_3177_3787_green.png"  transform="matrix(1 0 0 1 -2.439916e-004 2.441406e-004)">
</image>
<polygon opacity="0.7" fill="none" stroke="#00FF00" stroke-width="0.25" stroke-miterlimit="10" points="78,98 88,98 88,96 92,96 
	92,92 94,92 94,78 92,78 92,76 90,76 90,74 84,74 84,76 84,78 86,78 86,80 88,80 88,82 90,82 90,86 86,86 86,88 84,88 84,92 82,92 
	82,94 80,94 78,94 "/>
<polygon opacity="0.7" fill="none" stroke="#00FF00" stroke-width="0.25" stroke-miterlimit="10" points="78,82 78,84 76,84 76,86 
	73,86 73,87 72,87 72,88 68,88 68,70 66,70 66,66 64,66 64,60 68,60 68,58 70,58 70,57 74,57 74,58 77,58 77,59 78,59 78,62 74,62 
	74,64 72,64 72,80 74,80 74,82 "/>
<polygon opacity="0.7" fill="none" stroke="#00FF00" stroke-width="0.25" stroke-miterlimit="10" points="66,52 66,48 68,48 68,44 
	70,44 70,36 75,36 75,38 76,38 76,40 78,40 78,38 81,38 81,42 79,42 79,44 80,44 80,48 82,48 82,52 "/>
<polygon opacity="0.7" fill="none" stroke="#FFFF00" stroke-width="0.25" stroke-miterlimit="10" points="88,54 88,48 84,48 84,44 
	84,42 82,42 82,38 80,38 80,37 76,37 76,36 74,36 74,34 72,34 72,32 70,32 70,30 68,30 66,30 66,28 64,28 64,26 62,26 62,24 60,24 
	60,22 58,22 58,20 56,20 56,18 54,18 54,16 52,16 52,18 50,18 50,24 52,24 52,26 54,26 54,28 56,28 56,30 58,30 58,32 60,32 60,34 
	62,34 62,36 64,36 64,38 64,46 62,46 62,56 69,56 69,55 71,55 71,54 "/>
<polygon fill="none" stroke="#FFFF00" stroke-width="0.25" stroke-miterlimit="10" points="62,58 66,58 66,57 75,57 75,58 77,58 
	77,59 78,59 78,60 79,60 79,62 78,62 78,63 77,63 77,64 76,64 76,70 76,72 78,72 78,82 80,82 80,86 78,86 78,88 74,88 74,90 72,90 
	72,94 68,94 68,92 66,92 66,76.5 64,76.5 64,68 62,68 "/>
<polygon opacity="0.7" fill="none" stroke="#FFFF00" stroke-width="0.25" stroke-miterlimit="10" points="94,96 94,92.5 96,92.5 
	96,76 94,76 94,74 92,74 92,73 82,73 82,76 84,76 84,80 86,80 86,86 84,86 84,88 82,88 82,92 80,92 80,94 78,94 78,98 92,98 92,96 
	"/>
</svg>
