<?xml version="1.0" encoding="utf-8"?>
<!-- Generator: Adobe Illustrator 16.2.0, SVG Export Plug-In . SVG Version: 6.00 Build 0)  -->
<!DOCTYPE svg PUBLIC "-//W3C//DTD SVG 1.1//EN" "http://www.w3.org/Graphics/SVG/1.1/DTD/svg11.dtd">
<svg version="1.1" id="Layer_1" xmlns="http://www.w3.org/2000/svg" xmlns:xlink="http://www.w3.org/1999/xlink" x="0px" y="0px"
	 width="612px" height="792px" viewBox="0 0 612 792" enable-background="new 0 0 612 792" xml:space="preserve">
<image overflow="visible" enable-background="new    " width="112" height="97" xlink:href="MVI_3178_2064_black1.png"  transform="matrix(1 0 0 1 -2.439916e-004 2.441406e-004)">
</image>
<polygon opacity="0.7" fill="none" stroke="#00FF00" stroke-width="0.25" stroke-miterlimit="10" points="38,39 38,37 40,37 40,35 
	42,35 42,33 44,33 44,27 42,27 42,24 39,24 39,22 38,22 38,15 34,15 34,16 31,16 31,17 28,17 28,18 26,18 26,23 28,23 28,25 30,25 
	30,27 32,27 32,31 34,31 34,36 32,36 32,41 34,41 34,39 "/>
<polygon opacity="0.7" fill="none" stroke="#FFFF00" stroke-width="0.25" stroke-miterlimit="10" points="28,45 34,45 34,41 38,41 
	38,39 40,39 40,37 42,37 42,35 48,35 48,27 46,27 46,25 42,25 42,22 39,22 39,17 38,17 38,15 33,15 33,16 28,16 28,15 26,15 26,19 
	24,19 24,23 26,23 26,25 28,25 "/>
<polygon fill="none" stroke="#FFFF00" stroke-width="0.25" stroke-miterlimit="10" points="50,43 50,45 56,45 56,53 50,53 50,59 
	52,59 52,61 56,61 56,65 58,65 58,69 60,69 60,71 64,71 64,79 60,79 60,82.5 58,82.5 58,85 54.5,85 54.5,87 48,87 48,84 52,84 
	52,79.5 56,79.5 56,75 52,75 52,69 50,69 50,65 44,65 44,63 42,63 42,58.5 36,58.5 36,57 34,57 34,45 44,45 44,43 "/>
<polygon opacity="0.7" fill="none" stroke="#FFFF00" stroke-width="0.25" stroke-miterlimit="10" points="86,85 90,85 90,83 96,83 
	96,79 98.5,79 98.5,77 96,77 96,75 90,75 90,67 82,67 82,65 78,65 78,63 74,63 74,61 70,61 70,54.5 60,54.5 60,57 58,57 58,59 
	62,59 62,61 64,61 64,63 70,63 70,65 74,65 74,69 82,69 82,76.5 86,76.5 "/>
</svg>
