<?xml version="1.0" encoding="utf-8"?>
<!-- Generator: Adobe Illustrator 16.2.0, SVG Export Plug-In . SVG Version: 6.00 Build 0)  -->
<!DOCTYPE svg PUBLIC "-//W3C//DTD SVG 1.1//EN" "http://www.w3.org/Graphics/SVG/1.1/DTD/svg11.dtd">
<svg version="1.1" id="Layer_1" xmlns="http://www.w3.org/2000/svg" xmlns:xlink="http://www.w3.org/1999/xlink" x="0px" y="0px"
	 width="612px" height="792px" viewBox="0 0 612 792" enable-background="new 0 0 612 792" xml:space="preserve">
<image overflow="visible" enable-background="new    " width="100" height="75" xlink:href="MVI_3177_2195f_blue.png"  transform="matrix(1 0 0 1 -2.439916e-004 2.441406e-004)">
</image>
<polygon opacity="0.7" fill="none" stroke="#00FF00" stroke-width="0.25" stroke-miterlimit="10" points="27,38 30.9,38.1 
	30.9,40.2 29.1,40.1 29.1,52 27,52 27,54 24,54 24,56 21,56 21,58 15,57.9 15,54.1 16.9,54.1 17,50 19,50 19,44 21,44 21,42 23,42 
	23,40 27,40 "/>
<polygon opacity="0.7" fill="none" stroke="#00FF00" stroke-width="0.25" stroke-miterlimit="10" points="33,44 35,44 35,46 42,46 
	42,45 43,45 43,44 45,44 45,43 40,43 40,42 33,42 "/>
<polygon opacity="0.7" fill="none" stroke="#00FF00" stroke-width="0.25" stroke-miterlimit="10" points="46,60 46,59.1 43,59 
	43,58 42,58 42,56 39,56 39,54.1 41,54.1 41.1,52.1 42.1,52.1 42,51 43,51 43.1,50.1 45,50 45,48 47,48 47,47.1 48,47.1 48,46.2 
	51.1,46.2 51.1,45.1 52,45 52,44 59.1,44 59.1,42.2 60.9,42.2 66.9,42 66.9,44 65,44 65,48 63,48 63,50 61,50 61,54 59,54 59,56 
	57,56 57,60 "/>
<polygon opacity="0.7" fill="none" stroke="#FFFF00" stroke-width="0.25" stroke-miterlimit="10" points="11,58 13,58 13,52 15,52 
	15,46 17,46 17,42 21,42 21,40 23,40 23,38 29,38 29,36 33,36 33,39 32,39 32,42 30,42 30,53 29,53 29,54 27,54 27,55 25,55 25,56 
	23,56 23,57 21,57 21,58 19,58 19,59 16,59 16,60 11,60 "/>
<polygon opacity="0.7" fill="none" stroke="#FFFF00" stroke-width="0.25" stroke-miterlimit="10" points="59,62 59,60 61,60 61,58 
	63,58 63,56 65,56 65,54 67,54 67,52 69,52 69,48 71,48 71,44 73,44 73,42 75,42 75,38 77,38 77,36 79,36 79,32 81,32 81,26 85,26 
	85,24 87,24 87,21 83,21 83,20 81,20 81,21 81,22 75,22 75,23 71.5,23 71,23 71,24 67,24 67,26 61,26 61,28 57,28 57,30 67,30 
	67,32 69,32 69,34 67,34 67,36 63,36 63,38 61,38 61,40 59,40 59.1,42.2 55,42 55,44 51,44 51,45 49,45 49,46 47,46 47,47 46,47 
	46,48 45,48 45,49 44,49 44,50 43,50 43,51 42,51 42.1,52.1 40,52 40,54 39,54.1 39,56 41,56 41,57 42,57 42,58 43,58 43,59 45,59 
	45,60 51,60 51,62 "/>
</svg>
