<?xml version="1.0" encoding="utf-8"?>
<!-- Generator: Adobe Illustrator 16.2.0, SVG Export Plug-In . SVG Version: 6.00 Build 0)  -->
<!DOCTYPE svg PUBLIC "-//W3C//DTD SVG 1.1//EN" "http://www.w3.org/Graphics/SVG/1.1/DTD/svg11.dtd">
<svg version="1.1" id="Layer_1" xmlns="http://www.w3.org/2000/svg" xmlns:xlink="http://www.w3.org/1999/xlink" x="0px" y="0px"
	 width="612px" height="792px" viewBox="0 0 612 792" enable-background="new 0 0 612 792" xml:space="preserve">
<image overflow="visible" enable-background="new    " width="121" height="100" xlink:href="MVI_3178_599_black1.png"  transform="matrix(1 0 0 1 -2.439916e-004 2.441406e-004)">
</image>
<polygon opacity="0.7" fill="none" stroke="#00FF00" stroke-width="0.25" stroke-miterlimit="10" points="61,46 69,46 69,44 73,44 
	73,40 71,40 71,38 69,38 69,36 67,36 67,32 65,32 65,30 63,30 63,28 61,28 61,26 59,26 59,24 57,24 57,22 55,22 55,20 53,20 53,18 
	51,18 51,16 49,16 49,14 47,14 45,14 45,12 43,12 43,10 19,10 19,12 33,12 33,14 43,14 43,16 45,16 45,18 47,18 47,20 49,20 49,22 
	51,22 51,24 53,24 53,28 53,30 51,30 51,32 51,34 53,34 53,36 55,36 55,44 61,44 "/>
<polygon opacity="0.7" fill="none" stroke="#FFFF00" stroke-width="0.25" stroke-miterlimit="10" points="73,48 73,46 75,46 75,40 
	73,40 73,38 71,38 71,36 69,36 69,32 67,32 67,30 65,30 65,28 63,28 63,24 59,24 59,22 57,22 57,20 55,20 55,18 53,18 53,16 51,16 
	49,16 49,14 47,14 47,10 43,10 43,8 29,8 29,10 17,10 17,12 19,12 19,14 35,14 35,16 43,16 43,18 45,18 45,20 47,20 47,22 49,22 
	49,24 51,24 51,36 53,36 53,46 55,46 55,48 "/>
<polygon fill="none" stroke="#FFFF00" stroke-width="0.25" stroke-miterlimit="10" points="77,50 77,54 79,54 79,60 83,60 83,66 
	87,66 87,70 91,70 91,73.5 94,73.5 94,78 93,78 93,86 89,86 89,84 87,84 87,78 85,78 85,74 83,74 83,72 79,72 79,70 75,70 75,68 
	71,68 71,64 67,64 67,58 63,58 63,56 61,56 61,52 63,52 63,50 "/>
<polygon opacity="0.7" fill="none" stroke="#FFFF00" stroke-width="0.25" stroke-miterlimit="10" points="97,90 107,90 107,88 
	109,88 109,76 105,76 105,74 103,74 103,72 101,72 101,70 99,70 99,68 95,68 95,66 91,66 91,73.5 94,73.5 94,78 101,78 101,84.5 
	99,84.5 99,86 97,86 "/>
</svg>
