<?xml version="1.0" encoding="utf-8"?>
<!-- Generator: Adobe Illustrator 16.2.0, SVG Export Plug-In . SVG Version: 6.00 Build 0)  -->
<!DOCTYPE svg PUBLIC "-//W3C//DTD SVG 1.1//EN" "http://www.w3.org/Graphics/SVG/1.1/DTD/svg11.dtd">
<svg version="1.1" id="Layer_1" xmlns="http://www.w3.org/2000/svg" xmlns:xlink="http://www.w3.org/1999/xlink" x="0px" y="0px"
	 width="612px" height="792px" viewBox="0 0 612 792" enable-background="new 0 0 612 792" xml:space="preserve">
<image overflow="visible" enable-background="new    " width="89" height="81" xlink:href="MVI_3178_438_black1.png"  transform="matrix(1 0 0 1 -2.439916e-004 2.441406e-004)">
</image>
<polygon opacity="0.7" fill="none" stroke="#00FF00" stroke-width="0.25" stroke-miterlimit="10" points="64,36 66,36 66,34 68,34 
	68,32 70,32 70,26 72,26 72,24 74,24 74,18 76,18 76,14 70,14 70,16 68,16 68,18 66,18 66,22 64,22 64,26 62,26 62,30 58,30 58,32 
	60,32 60,34 64,34 "/>
<polygon opacity="0.7" fill="none" stroke="#FFFF00" stroke-width="0.25" stroke-miterlimit="10" points="64,38 70,38 70,32 72,32 
	72,28 74,28 74,26 76,26 76,18 80,18 80,16 78,16 78,14 74,14 74,12 70,12 70,14 68,14 68,16 66,16 66,18 64,18 64,22 62,22 62,26 
	60,26 60,28 58,28 58,30 56,30 56,32 58,32 58,34 62,34 62,36 64,36 "/>
<polygon fill="none" stroke="#FFFF00" stroke-width="0.25" stroke-miterlimit="10" points="35,8 35,12 36,12 36,18 38,18 38,22 
	40,22 40,25 46,25 46,26 50,26 50,22 46,22 46,16 44,16 44,14 42,14 42,10 40,10 40,8 "/>
<polygon fill="none" stroke="#FFFF00" stroke-width="0.25" stroke-miterlimit="10" points="16,10 16,14 20,14 20,18 23.5,18 24,18 
	24,24 28,24 28,26 35,26 35,30 34,30 34,33 32,33 32,36 26,36 26,34 24,34 24,30 22,30 22,26 19,26 19,22 14,22 14,18 12,18 12,16 
	10,16 10,12 8,12 8,10 "/>
<polygon opacity="0.7" fill="none" stroke="#FFFF00" stroke-width="0.25" stroke-miterlimit="10" points="40,42 40,40 42,40 42,38 
	45,38 45,36 46,36 46,34 50,34 50,32 52,32 52,29 48,29 48,30 44,30 44,28.5 38,28.5 38,30 34,30 34,36 36,36 36,38 38,38 38,42 "/>
<polygon opacity="0.7" fill="none" stroke="#FFFF00" stroke-width="0.25" stroke-miterlimit="10" points="50,58 50,62 54,62 54,64 
	58,64 58,68 66,68 66,72 82,72 82,66 70,66 70,62 68,62 68,60 62,60 62,57.5 58,57.5 58,52 46,52 46,58 "/>
</svg>
