<?xml version="1.0" encoding="utf-8"?>
<!-- Generator: Adobe Illustrator 16.2.0, SVG Export Plug-In . SVG Version: 6.00 Build 0)  -->
<!DOCTYPE svg PUBLIC "-//W3C//DTD SVG 1.1//EN" "http://www.w3.org/Graphics/SVG/1.1/DTD/svg11.dtd">
<svg version="1.1" id="Layer_1" xmlns="http://www.w3.org/2000/svg" xmlns:xlink="http://www.w3.org/1999/xlink" x="0px" y="0px"
	 width="612px" height="792px" viewBox="0 0 612 792" enable-background="new 0 0 612 792" xml:space="preserve">
<image overflow="visible" enable-background="new    " width="100" height="81" xlink:href="MVI_3178_636_kid1.png"  transform="matrix(1 0 0 1 -2.439916e-004 2.441406e-004)">
</image>
<polygon opacity="0.7" fill="none" stroke="#00FF00" stroke-width="0.25" stroke-miterlimit="10" points="47,38 47,34 43,34 43,32 
	33,32 33,30 29,30 29,28 25,28 25,26 17,26 17,24 15,24 15,26 13,26 13,28 11,28 11,34 15,34 15,32 17,32 17,30 25,30 25,32 27,32 
	27,34 29,34 31,34 31,36 35,36 35,38 "/>
<polygon opacity="0.7" fill="none" stroke="#FFFF00" stroke-width="0.25" stroke-miterlimit="10" points="43,40 43,38 47,38 47,34 
	45,34 45,30 33,30 33,28 29,28 29,26 23,26 23,24 17,24 17,22 13,22 13,24 11,24 11,26 9,26 9,36 17,36 17,34 19,34 19,30 23,30 
	23,32 25,32 25,34 27,34 27,36 31,36 33,36 33,38 37,38 37,40 "/>
<polygon opacity="0.7" fill="none" stroke="#FFFF00" stroke-width="0.25" stroke-miterlimit="10" points="63,42 63,44 71,44 71,38 
	67,38 67,32 63,32 63,31 50,31 50,30 45,30 45,34 47,34 47,36 51,36 51,38 55,38 55,40 59,40 59,42 "/>
<polygon opacity="0.7" fill="none" stroke="#FFFF00" stroke-width="0.25" stroke-miterlimit="10" points="85,58 81,58 81,60 75,60 
	75,64 69,64 69,66 67,66 67,68 62,68 62,74 53,74 53,72 55,72 55,68 59,68 59,66 63,66 63,64 67.5,64 67.5,58 71,58 71,54 68,54 
	68,50 65,50 65,47 64,47 64,44 69,44 69,48 75,48 75,50 79,50 79,52 85,52 "/>
<polygon opacity="0.7" fill="none" stroke="#FFFF00" stroke-width="0.25" stroke-miterlimit="10" points="71,18 73,18 73,16 75,16 
	75,14 79,14 79,10 83,10 83,6 89,6 89,10 87,10 87,12 85,12 85,14 81,14 81,18 79,18 79,22 77,22 77,26 73,26 73,22 71,22 "/>
<polygon opacity="0.7" fill="none" stroke="#FFFF00" stroke-width="0.25" stroke-miterlimit="10" points="59,24 59,22 61,22 61,20 
	63,20 63,18 67,18 67,12 69,12 69,10 73,10 73,8 67,8 67,10 63,10 63,12 61,12 61,14 59,14 59,16 57,16 57,22 55,22 55,24 "/>
</svg>
