<?xml version="1.0" encoding="utf-8"?>
<!-- Generator: Adobe Illustrator 16.2.0, SVG Export Plug-In . SVG Version: 6.00 Build 0)  -->
<!DOCTYPE svg PUBLIC "-//W3C//DTD SVG 1.1//EN" "http://www.w3.org/Graphics/SVG/1.1/DTD/svg11.dtd">
<svg version="1.1" id="Layer_1" xmlns="http://www.w3.org/2000/svg" xmlns:xlink="http://www.w3.org/1999/xlink" x="0px" y="0px"
	 width="612px" height="792px" viewBox="0 0 612 792" enable-background="new 0 0 612 792" xml:space="preserve">
<image overflow="visible" enable-background="new    " width="162" height="70" xlink:href="MVI_3177_3269_leftman2.png"  transform="matrix(1 0 0 1 -2.439916e-004 2.441406e-004)">
</image>
<polygon opacity="0.7" fill="none" stroke="#00FF00" stroke-width="0.25" points="33,54 37,54 37,52 39,52 41,52 41,50 43,50 43,48 
	47,48 47,46 49,46 49,44 51,44 51,42 55,42 55,38 59,38 59,36 61,36 61,32 63,32 63,30 65,30 65,28 81,28 81,26 89,26 89,29 94,29 
	94,31 101,31 101,30 121,30 121,32 117,32 117,34 101,34 101,38 97,38 97,40 93,40 93,42 91,42 91,44 85,44 85,48 81,48 81,50 
	77,50 77,52 71,52 71,54 67,54 67,56 63,56 63,58 59,58 59,60 40,60 40,58 33,58 "/>
<polygon opacity="0.7" fill="none" stroke="#FFFF00" stroke-width="0.25" points="73,57.5 73,54 77,54 77,52 81,52 81,50 85,50 
	85,48 89,48 89,46 91,46 91,44 97,44 97,42 101,42 101,40 104.5,40 104.5,38 117,38 117,36 121,36 121,34 123.1,34 123,30 129,30 
	129,28 133,28 133,26 135,26 135,24 137,24 137,22 140,22 140,20 146,20 146,18 149.5,18 149.5,16.1 153,16 153,10 145,10 145,11 
	143,11 143,14 141.5,14 141.5,15 140,15 140,16.5 139,16.5 139,18 137,18 137,19.5 135.5,19.5 135.5,20.5 134.5,20.5 134.5,22 
	130,22 130,24 129,24 129,25 127,25 127,26 125,26 125,27 123,27 123,28 121,28 121,29 117,29 117,30 95,30 95,29 91,29 91,27 
	89,27 89,26 86.5,26 86.5,24 81,24 81,26 63,26 63,28 61,28 61,30 59,30 59,32 57,32 57,36 55,36 55,38 53,38 51,38 51,40 49,40 
	49,42 47,42 47,44 45,44 45,46 43,46 43,48 39,48 39,50 30.5,50 30.5,56 32,56 32,58 33,58 33,59 40,59 40,60 45,60 45,62 47,62 
	47,64 59,64 59,62 66.5,62 66.5,60 71,60 71,57.5 "/>
</svg>
