<?xml version="1.0" encoding="utf-8"?>
<!-- Generator: Adobe Illustrator 16.2.0, SVG Export Plug-In . SVG Version: 6.00 Build 0)  -->
<!DOCTYPE svg PUBLIC "-//W3C//DTD SVG 1.1//EN" "http://www.w3.org/Graphics/SVG/1.1/DTD/svg11.dtd">
<svg version="1.1" id="Layer_1" xmlns="http://www.w3.org/2000/svg" xmlns:xlink="http://www.w3.org/1999/xlink" x="0px" y="0px"
	 width="612px" height="792px" viewBox="0 0 612 792" enable-background="new 0 0 612 792" xml:space="preserve">
<image overflow="visible" enable-background="new    " width="59" height="37" xlink:href="MVI_3177_3426_right1.png"  transform="matrix(1 0 0 1 -2.439916e-004 2.441406e-004)">
</image>
<polygon opacity="0.7" fill="none" stroke="#00FF00" stroke-width="0.25" points="35,24 43,24 43,20 39,20 39,18 37,18 37,16 35,16 
	35,12 33,12 33,10 31,10 31,8 11,8 11,10 27,10 27,12 29,12 29,14 31,14 31,16 31,18 33,18 33,20 35,20 "/>
<polygon opacity="0.7" fill="none" stroke="#FFFF00" stroke-width="0.25" points="21,28 23,28 23,30 39,30 39,28 41,28 41,26 47,26 
	47,20 43,20 43,18 41,18 41,16 39,16 39,14 37,14 37,12 35,12 35,10 33,10 33,8 31,8 31,6 9,6 9,12 11,12 11,14 12,14 12,12 23,12 
	23,14 27,14 27,18 29,18 29,22 21,22 "/>
</svg>
