<?xml version="1.0" encoding="utf-8"?>
<!-- Generator: Adobe Illustrator 16.2.0, SVG Export Plug-In . SVG Version: 6.00 Build 0)  -->
<!DOCTYPE svg PUBLIC "-//W3C//DTD SVG 1.1//EN" "http://www.w3.org/Graphics/SVG/1.1/DTD/svg11.dtd">
<svg version="1.1" id="Layer_1" xmlns="http://www.w3.org/2000/svg" xmlns:xlink="http://www.w3.org/1999/xlink" x="0px" y="0px"
	 width="612px" height="792px" viewBox="0 0 612 792" enable-background="new 0 0 612 792" xml:space="preserve">
<image overflow="visible" enable-background="new    " width="68" height="64" xlink:href="MVI_3178_602_kid1.png"  transform="matrix(1 0 0 1 -2.439916e-004 2.441406e-004)">
</image>
<polygon opacity="0.7" fill="none" stroke="#00FF00" stroke-width="0.25" stroke-miterlimit="10" points="29,29 33,29 33,27 35,27 
	35,23 37,23 37,21 39,21 39,19 41,19 41,17 43,17 43,15 47,15 47,13 53,13 53,11 59,11 59,7 53,7 53,9 49,9 49,11 43,11 43,13 
	41,13 41,15 37,15 37,17 35,17 35,19 33,19 33,21 31,21 31,23 29,23 29,25 27,25 27,27 29,27 "/>
<polygon opacity="0.7" fill="none" stroke="#FFFF00" stroke-width="0.25" stroke-miterlimit="10" points="25,25 27,25 27,23 29,23 
	29,21 31,21 31,19 33,19 33,17 35,17 35,15 37,15 37,13 41,13 41,11 45,11 45,9 53,9 53,7 61,7 61,11 59,11 53,11 53,13 49,13 
	49,15 47,15 45,15 45,17 43,17 43,19 41,19 41,21 39,21 39,23 37,23 37,25 37,27 35,27 35,29 33,29 33,31 27,31 27,29 25,29 "/>
<polygon opacity="0.7" fill="none" stroke="#FFFF00" stroke-width="0.25" stroke-miterlimit="10" points="7,45 7,59 9,59 9,61 
	13,61 13,51 21,51 21,47 19,47 19,45 "/>
</svg>
