<?xml version="1.0" encoding="utf-8"?>
<!-- Generator: Adobe Illustrator 16.2.0, SVG Export Plug-In . SVG Version: 6.00 Build 0)  -->
<!DOCTYPE svg PUBLIC "-//W3C//DTD SVG 1.1//EN" "http://www.w3.org/Graphics/SVG/1.1/DTD/svg11.dtd">
<svg version="1.1" id="Layer_1" xmlns="http://www.w3.org/2000/svg" xmlns:xlink="http://www.w3.org/1999/xlink" x="0px" y="0px"
	 width="612px" height="792px" viewBox="0 0 612 792" enable-background="new 0 0 612 792" xml:space="preserve">
<image overflow="visible" enable-background="new    " width="73" height="67" xlink:href="MVI_3178_421_black1.png"  transform="matrix(1 0 0 1 -2.439916e-004 2.441406e-004)">
</image>
<polygon opacity="0.7" fill="none" stroke="#00FF00" stroke-width="0.25" stroke-miterlimit="10" points="36,25 36,21 32,21 32,19 
	30,19 30,17 26,17 26,19 28,19 28,21 31,21 31,23 32,23 32,25 "/>
<polygon opacity="0.7" fill="none" stroke="#00FF00" stroke-width="0.25" stroke-miterlimit="10" points="20,13 18,13 18,9 14,9 
	14,17 16,17 16,19 18,19 18,21 20,21 "/>
<polygon opacity="0.7" fill="none" stroke="#FFFF00" stroke-width="0.25" stroke-miterlimit="10" points="38,27 38,25 40,25 40,23 
	38,23 38,21 36,21 36,19 34,19 34,15 32,15 32,13 30,13 30,9 26,9 26,7 18,7 18,5 12,5 12,7 10,7 10,9 6,9 6,11 10,11 10,21 16,21 
	16,23 18,23 18,25 20,25 20,27 26,27 26,29 34,29 34,27 "/>
</svg>
