<?xml version="1.0" encoding="utf-8"?>
<!-- Generator: Adobe Illustrator 16.2.0, SVG Export Plug-In . SVG Version: 6.00 Build 0)  -->
<!DOCTYPE svg PUBLIC "-//W3C//DTD SVG 1.1//EN" "http://www.w3.org/Graphics/SVG/1.1/DTD/svg11.dtd">
<svg version="1.1" id="Layer_1" xmlns="http://www.w3.org/2000/svg" xmlns:xlink="http://www.w3.org/1999/xlink" x="0px" y="0px"
	 width="612px" height="792px" viewBox="0 0 612 792" enable-background="new 0 0 612 792" xml:space="preserve">
<image overflow="visible" enable-background="new    " width="123" height="101" xlink:href="MVI_3178_464_black1.png"  transform="matrix(1 0 0 1 -2.439916e-004 2.441406e-004)">
</image>
<polygon opacity="0.7" fill="none" stroke="#00FF00" stroke-width="0.25" stroke-miterlimit="10" points="76,59 76,55 74,55 74,51 
	72,51 72,49 70,49 70,47 68,47 68,45 66,45 66,43 64,43 64,41 62,41 62,37 58,37 58,35 58,33 56,33 56,31 54,31 54,29 52,29 52,27 
	50,27 50,25 18,25 18,26 22,26 22,27 26,27 26,28 36,28 36,30 44,30 44,31 48,31 48,37 50,37 50,39 52,39 52,43 54,43 54,45 56,45 
	56,49 60,49 60,55 64,55 64,59 "/>
<polygon opacity="0.7" fill="none" stroke="#FFFF00" stroke-width="0.25" stroke-miterlimit="10" points="82,59 82,57 80,57 80,55 
	78,55 78,53 76,53 76,51 74,51 74,49 72,49 72,47 70,47 70,45 68,45 68,43 66,43 66,41 64,41 64,37 62,37 62,35 60,35 60,33 58,33 
	58,31 56,31 56,29 54,29 54,27 52,27 52,25 50,25 48,25 48,23 40,23 40,25 22,25 22,23 18,23 18,21.5 12,21.5 12,28.5 20,28.5 
	20,31 30,31 30,33 34,33 34,35 44,35 44,37 48,37 48,39 50,39 50,43 52,43 52,49 43,49 43,55 48,55 48,59 54,59 54,63 60.5,63 
	60.5,69 76.5,69 76.5,65 84.5,65 84.5,59 "/>
<polygon opacity="0.7" fill="none" stroke="#FFFF00" stroke-width="0.25" stroke-miterlimit="10" points="110,91 110,85 106,85 
	106,87 102,87 102,91 104,91 104,93 107,93 107,91 "/>
</svg>
