<?xml version="1.0" encoding="utf-8"?>
<!-- Generator: Adobe Illustrator 16.2.0, SVG Export Plug-In . SVG Version: 6.00 Build 0)  -->
<!DOCTYPE svg PUBLIC "-//W3C//DTD SVG 1.1//EN" "http://www.w3.org/Graphics/SVG/1.1/DTD/svg11.dtd">
<svg version="1.1" id="Layer_1" xmlns="http://www.w3.org/2000/svg" xmlns:xlink="http://www.w3.org/1999/xlink" x="0px" y="0px"
	 width="612px" height="792px" viewBox="0 0 612 792" enable-background="new 0 0 612 792" xml:space="preserve">
<image overflow="visible" enable-background="new    " width="132" height="104" xlink:href="MVI_3177_3650_green.png"  transform="matrix(1 0 0 1 -2.439916e-004 2.441406e-004)">
</image>
<polygon opacity="0.7" fill="none" stroke="#00FF00" stroke-width="0.25" stroke-miterlimit="10" points="69,86 73,86 73,82 73,78 
	77,78 77,74 79,74 79,70 81,70 81,67 85,67 85,62 89,62 89,58 91,58 91,54 95,54 95,52 97,52 97,50 103,50 103,46 107,46 107,44 
	111,44 111,42 117,42 117,40 121,40 121,38 117,38 117,36 113,36 113,38 107,38 107,40 103,40 103,42 97,42 97,44 93,44 93,46 
	89,46 89,48 85,48 85,50 85,52 81,52 81,54 79,54 79,56 77,56 77,60 73,60 73,64 71,64 71,66 69,66 69,70 67,70 67,74 65,74 65,78 
	63,78 63,80 57,80 57,84 54,84 54,92 67,92 67,90 69,90 "/>
<polygon opacity="0.7" fill="none" stroke="#FFFF00" stroke-width="0.25" stroke-miterlimit="10" points="53,78 53,92 63,92 63,94 
	71.5,94 71.5,92 73,92 73,86 75,86 75,82 77,82 77,78 79,78 79,74 81,74 81,70 85,70 85,68 87,68 87,66 89,66 89,62 91,62 91,58 
	93,58 93,56 97,56 97,54 101,54 101,52 105,52 105,50 107,50 107,48 109,48 109,46 113,46 113,44 117,44 117,42 125,42 125,38 
	127,38 127,34 123,34 123,36 109,36 109,38 101.5,38 101.5,40 97,40 97,42 91,42 91,44 89,44 89,46 85,46 85,48 81,48 81,52 77,52 
	77,56 73,56 73,60 73,62 69.5,62 69.5,66 67,66 67,68 65,68 65,74 60.5,74 60.5,78 "/>
<polygon fill="none" stroke="#FFFF00" stroke-width="0.25" stroke-miterlimit="10" points="25,62 25,38 15,38 15,40 13,40 13,46 
	15,46 15,52 17,52 17,60 19,60 19,62 "/>
</svg>
