<?xml version="1.0" encoding="utf-8"?>
<!-- Generator: Adobe Illustrator 16.2.0, SVG Export Plug-In . SVG Version: 6.00 Build 0)  -->
<!DOCTYPE svg PUBLIC "-//W3C//DTD SVG 1.1//EN" "http://www.w3.org/Graphics/SVG/1.1/DTD/svg11.dtd">
<svg version="1.1" id="Layer_1" xmlns="http://www.w3.org/2000/svg" xmlns:xlink="http://www.w3.org/1999/xlink" x="0px" y="0px"
	 width="612px" height="792px" viewBox="0 0 612 792" enable-background="new 0 0 612 792" xml:space="preserve">
<image overflow="visible" opacity="0.7" enable-background="new    " width="83" height="38" xlink:href="MVI_3176_622_leftman2.png"  transform="matrix(1 0 0 1 -2.439916e-004 2.441406e-004)">
</image>
<polygon opacity="0.7" fill="none" stroke="#00FF00" stroke-width="0.25" stroke-miterlimit="10" points="44,18 46,18 46,16 50,16 
	50,15 52,15 52,14 59,14 59,16 62,16 62,18 60,18 60,20 44,20 "/>
<polygon fill="none" stroke="#FFFF00" stroke-width="0.25" stroke-miterlimit="10" points="56,24 56,22 62,22 62,20 68,20 68,18 
	74,18 74,16 76,16 76,14 72,14 72,16 71,16 71,17 68,17 68,16 64,16 64,14 60,14 60,12 50,12 50,14 48,14 48,15 46,15 46,16 44,16 
	44,18 42,18 42,20 42,22 42,24 "/>
</svg>
