<?xml version="1.0" encoding="utf-8"?>
<!-- Generator: Adobe Illustrator 16.2.0, SVG Export Plug-In . SVG Version: 6.00 Build 0)  -->
<!DOCTYPE svg PUBLIC "-//W3C//DTD SVG 1.1//EN" "http://www.w3.org/Graphics/SVG/1.1/DTD/svg11.dtd">
<svg version="1.1" id="Layer_1" xmlns="http://www.w3.org/2000/svg" xmlns:xlink="http://www.w3.org/1999/xlink" x="0px" y="0px"
	 width="612px" height="792px" viewBox="0 0 612 792" enable-background="new 0 0 612 792" xml:space="preserve">
<image overflow="visible" enable-background="new    " width="60" height="39" xlink:href="MVI_3178_383_black1.png"  transform="matrix(1 0 0 1 -2.439916e-004 2.441406e-004)">
</image>
<polygon fill="none" stroke="#00FF00" stroke-width="0.25" stroke-miterlimit="10" points="51,20 51,14 49,14 49,12 45,12 45,14 
	43,14 43,20 "/>
<polygon opacity="0.7" fill="none" stroke="#FFFF00" stroke-width="0.25" stroke-miterlimit="10" points="47,22 51,22 51,20 53,20 
	53,14 51,14 51,8 43,8 43,12 43,14 41,14 41,17 42,17 42,18 43,18 43,20 45,20 45,21 47,21 "/>
<polygon fill="none" stroke="#FFFF00" stroke-width="0.25" stroke-miterlimit="10" points="32.5,28 39,28 39,30 43,30 43,32 55,32 
	55,34 51,34 51,36 41,36 41,32 35,32 35,30 32.5,30 "/>
<polygon opacity="0.7" fill="none" stroke="#FFFF00" stroke-width="0.25" stroke-miterlimit="10" points="33,13 33,14 35,14 35,15 
	39,15 39,12 35,12 35,10 33,10 33,6 25,6 25,8 27,8 27,12 29,12 29,13 "/>
<polygon opacity="0.7" fill="none" stroke="#FFFF00" stroke-width="0.25" stroke-miterlimit="10" points="7,4 10,4 10,6 15,6 15,10 
	21,10 21,14 30,14 30,18 32,18 32,20 31,20 31,24 25,24 25,22 11,22 11,16 7,16 "/>
</svg>
