<?xml version="1.0" encoding="utf-8"?>
<!-- Generator: Adobe Illustrator 16.2.0, SVG Export Plug-In . SVG Version: 6.00 Build 0)  -->
<!DOCTYPE svg PUBLIC "-//W3C//DTD SVG 1.1//EN" "http://www.w3.org/Graphics/SVG/1.1/DTD/svg11.dtd">
<svg version="1.1" id="Layer_1" xmlns="http://www.w3.org/2000/svg" xmlns:xlink="http://www.w3.org/1999/xlink" x="0px" y="0px"
	 width="612px" height="792px" viewBox="0 0 612 792" enable-background="new 0 0 612 792" xml:space="preserve">
<image overflow="visible" enable-background="new    " width="88" height="93" xlink:href="MVI_3178_2446_kid1.png"  transform="matrix(1 0 0 1 -2.439916e-004 2.441406e-004)">
</image>
<polygon opacity="0.7" fill="none" stroke="#00FF00" stroke-width="0.25" stroke-miterlimit="10" points="50,33 58,33 58,27 60,27 
	60,25 62,25 62,21 60,21 60,17 46,17 46,19 44,19 44,21 42,21 42,23 40,23 40,25 38,25 38,29 36,29 36,31 32,31 32,33 30,33 30,35 
	40,35 40,33 42,33 42,31 44,31 44,29 47,29 47,27 48,27 48,23 50,23 "/>
<polygon opacity="0.7" fill="none" stroke="#FFFF00" stroke-width="0.25" stroke-miterlimit="10" points="30,35 42,35 42,31 44,31 
	44,29 47,29 47,27 48,27 48,23 50,23 50,33 48,33 48,37 54,37 54,35 62,35 62,19 60,19 60,17 58,17 58,13 50,13 50,15 46,15 46,17 
	46,19 42,19 42,23 40,23 40,25 38,25 38,27 36,27 36,29 34,29 34,31 32,31 32,33 30,33 "/>
<polygon opacity="0.7" fill="none" stroke="#FFFF00" stroke-width="0.25" stroke-miterlimit="10" points="8,85 14,85 14,81 18,81 
	18,79 24,79 24,73 26,73 26,71 28,71 28,69 30,69 30,67 32,67 32,65 38,65 38,55 40,55 40,53 46,53 46,49 47,49 47,43 46,43 46,41 
	40,41 40,43 37,43 37,45 31,45 31,55 28,55 28,57 26,57 26,65 22,65 22,69 20,69 20,71 18,71 18,73 14,73 14,77 10,77 10,79 8,79 
	"/>
<polygon opacity="0.7" fill="none" stroke="#FFFF00" stroke-width="0.25" stroke-miterlimit="10" points="34,81 40,81 40,79 42,79 
	42,73 44,73 44,72 46,72 46,69 48,69 48,65 52,65 52,63 54,63 54,61 56,61 56,57 62,57 62,53 64,53 64,50 58,50 58,53 54,53 54,59 
	52,59 52,61 50,61 50,63 45,63 45,65 38,65 38,70 36,70 36,77 34,77 "/>
</svg>
