<?xml version="1.0" encoding="utf-8"?>
<!-- Generator: Adobe Illustrator 16.2.0, SVG Export Plug-In . SVG Version: 6.00 Build 0)  -->
<!DOCTYPE svg PUBLIC "-//W3C//DTD SVG 1.1//EN" "http://www.w3.org/Graphics/SVG/1.1/DTD/svg11.dtd">
<svg version="1.1" id="Layer_1" xmlns="http://www.w3.org/2000/svg" xmlns:xlink="http://www.w3.org/1999/xlink" x="0px" y="0px"
	 width="612px" height="792px" viewBox="0 0 612 792" enable-background="new 0 0 612 792" xml:space="preserve">
<image overflow="visible" enable-background="new    " width="74" height="48" xlink:href="MVI_3178_368_black1.png"  transform="matrix(1 0 0 1 -2.439916e-004 2.441406e-004)">
</image>
<polygon fill="none" stroke="#00FF00" stroke-width="0.25" stroke-miterlimit="10" points="29,24 33,24 33,20 27,20 27,18 25,18 
	25,16 23,16 23,14 13,14 13,16 17,16 17,18 21,18 21,19 23,19 23,20 25,20 25,21 27,21 27,22 29,22 "/>
<polygon opacity="0.7" fill="none" stroke="#FFFF00" stroke-width="0.25" stroke-miterlimit="10" points="37,24 37,22 35,22 35,20 
	31,20 31,18 27,18 27,16 25,16 25,14 23,14 23,12 15,12 15,10 13,10 13,6 9,6 9,8 7,8 7,12 9,12 9,14 11,14 11,18 17,18 17,20 
	19,20 19,22 21,22 21,24 27,24 27,25 30,25 30,26 34,26 34,24 "/>
<polygon opacity="0.7" fill="none" stroke="#FFFF00" stroke-width="0.25" stroke-miterlimit="10" points="57,42 69,42 69,40 65,40 
	65,36 63,36 63,34 61,34 61,32 57,32 57,30 49,30 49,32 53,32 53,34 57,34 57,36 59,36 59,40 57,40 "/>
</svg>
