<?xml version="1.0" encoding="utf-8"?>
<!-- Generator: Adobe Illustrator 16.2.0, SVG Export Plug-In . SVG Version: 6.00 Build 0)  -->
<!DOCTYPE svg PUBLIC "-//W3C//DTD SVG 1.1//EN" "http://www.w3.org/Graphics/SVG/1.1/DTD/svg11.dtd">
<svg version="1.1" id="Layer_1" xmlns="http://www.w3.org/2000/svg" xmlns:xlink="http://www.w3.org/1999/xlink" x="0px" y="0px"
	 width="612px" height="792px" viewBox="0 0 612 792" enable-background="new 0 0 612 792" xml:space="preserve">
<image overflow="visible" enable-background="new    " width="73" height="51" xlink:href="MVI_3177_3429_right1.png"  transform="matrix(1 0 0 1 -2.439916e-004 2.441406e-004)">
</image>
<polygon id="skin1" opacity="0.7" fill="none" stroke="#00FF00" stroke-width="0.25" stroke-miterlimit="10" points="61,35 61,31 
	59,31 59,29 57,29 57,27 55,27 55,25 53,25 53,23 51,23 51,21 49,21 49,19 47,19 47,17 43,17 43,15 23,15 23,17 37,17 37,19 41,19 
	41,21 43,21 43,23 45,23 45,27 47,27 47,29 49,29 49,33 51,33 51,35 "/>
<polygon opacity="0.7" fill="none" stroke="#FFFF00" stroke-width="0.25" stroke-miterlimit="10" points="37,37 39,37 39,39 61,39 
	61,37 65,37 65,33 63,33 63,31 61,31 61,29 59,29 59,27 57,27 57,25 55,25 55,23 53,23 53,21 51,21 51,19 49,19 49,17 47,17 47,15 
	41,15 41,13 19,13 19,15 17,15 17,17 31,17 31,19 41,19 41,21 43,21 43,27 45,27 45,31 41,31 41,33 37,33 "/>
</svg>
