<?xml version="1.0" encoding="utf-8"?>
<!-- Generator: Adobe Illustrator 16.2.0, SVG Export Plug-In . SVG Version: 6.00 Build 0)  -->
<!DOCTYPE svg PUBLIC "-//W3C//DTD SVG 1.1//EN" "http://www.w3.org/Graphics/SVG/1.1/DTD/svg11.dtd">
<svg version="1.1" id="Layer_1" xmlns="http://www.w3.org/2000/svg" xmlns:xlink="http://www.w3.org/1999/xlink" x="0px" y="0px"
	 width="612px" height="792px" viewBox="0 0 612 792" enable-background="new 0 0 612 792" xml:space="preserve">
<image overflow="visible" enable-background="new    " width="104" height="59" xlink:href="MVI_3177_2954_leftman1.png"  transform="matrix(1 0 0 1 -2.439916e-004 2.441406e-004)">
</image>
<polygon opacity="0.7" fill="none" stroke="#00FF00" stroke-width="0.25" points="80,18 80,20 83,20 83,22 87,22 87,24 92,24 92,28 
	82,28 82,30 62,30 62,26 64,26 64,22 66,22 66,20 74,20 74,18 "/>
<polygon opacity="0.7" fill="none" stroke="#FFFF00" stroke-width="0.25" points="54,36 78,36 78,34 82,34 82,32 86,32 86,30 92,30 
	92,28 96,28 96,26 94,26 94,24 92,24 92,22 88,22 88,20 86,20 86,12 84,12 84,16 72,16 72,18 68,18 68,20 64,20 64,22 62,22 62,26 
	60,26 60,28 57.5,28 57.5,32 54,32 "/>
<polygon opacity="0.7" fill="none" stroke="#FFFF00" stroke-width="0.25" points="57.5,41 57.5,42 52,42 52,44 44,44 44,46 36,46 
	36,48 32,48 32,50 24,50 24,52 20,52 20,50 12,50 12,46 20,46 20,44 26,44 26,42 29.5,42 29.5,41 "/>
</svg>
