<?xml version="1.0" encoding="utf-8"?>
<!-- Generator: Adobe Illustrator 16.2.0, SVG Export Plug-In . SVG Version: 6.00 Build 0)  -->
<!DOCTYPE svg PUBLIC "-//W3C//DTD SVG 1.1//EN" "http://www.w3.org/Graphics/SVG/1.1/DTD/svg11.dtd">
<svg version="1.1" id="Layer_1" xmlns="http://www.w3.org/2000/svg" xmlns:xlink="http://www.w3.org/1999/xlink" x="0px" y="0px"
	 width="612px" height="792px" viewBox="0 0 612 792" enable-background="new 0 0 612 792" xml:space="preserve">
<image overflow="visible" enable-background="new    " width="102" height="78" xlink:href="MVI_3178_417_black1.png"  transform="matrix(1 0 0 1 -2.439916e-004 2.441406e-004)">
</image>
<polygon opacity="0.7" fill="none" stroke="#00FF00" stroke-width="0.25" stroke-miterlimit="10" points="60,32 60,28 58,28 58,26 
	56,26 56,24 54,24 54,22 52,22 52,18 50,18 50,16 48,16 48,12 44,12 44,10 26,10 26,12 36,12 36,13 43,13 43,14 44,14 44,16 46,16 
	46,20 48,20 48,22 50,22 50,26 52,26 52,28 54,28 54,30 58,30 58,32 "/>
<polygon opacity="0.7" fill="none" stroke="#FFFF00" stroke-width="0.25" stroke-miterlimit="10" points="50,36 54,36 54,34 58,34 
	58,32 60,32 60,26 58,26 58,24 56,24 56,22 54,22 54,18 52,18 52,16 50,16 50,12 48,12 48,10 46,10 46,8 32,8 32,10 18,10 18,14 
	40,14 40,16 44,16 44,20 46,20 46,24 48,24 48,26 50,26 50,30 46,30 46,34 50,34 "/>
<polygon opacity="0.7" fill="none" stroke="#FFFF00" stroke-width="0.25" stroke-miterlimit="10" points="87.5,65.5 92,65.5 92,58 
	90,58 90,54 88,54 88,52 84,52 84,50 80,50 80,48 72,48 72,50.5 76,50.5 76,52 80.5,52 80.5,57.5 84,57.5 87.5,57.5 "/>
</svg>
