<?xml version="1.0" encoding="utf-8"?>
<!-- Generator: Adobe Illustrator 16.2.0, SVG Export Plug-In . SVG Version: 6.00 Build 0)  -->
<!DOCTYPE svg PUBLIC "-//W3C//DTD SVG 1.1//EN" "http://www.w3.org/Graphics/SVG/1.1/DTD/svg11.dtd">
<svg version="1.1" id="Layer_1" xmlns="http://www.w3.org/2000/svg" xmlns:xlink="http://www.w3.org/1999/xlink" x="0px" y="0px"
	 width="612px" height="792px" viewBox="0 0 612 792" enable-background="new 0 0 612 792" xml:space="preserve">
<image overflow="visible" enable-background="new    " width="73" height="66" xlink:href="MVI_3177_3624_leftman3.png"  transform="matrix(1 0 0 1 -2.439916e-004 2.441406e-004)">
</image>
<polygon opacity="0.7" fill="none" stroke="#00FF00" stroke-width="0.25" stroke-miterlimit="10" points="34,41 34,37 32,37 32,35 
	28,35 28,34 22,34 22,35 27,35 27,36 28,36 28,40 27,40 27,41 "/>
<polygon opacity="0.7" fill="none" stroke="#FFFF00" stroke-width="0.25" stroke-miterlimit="10" points="12,53 12,49 24,49 24,47 
	29.5,47 29.5,45 36,45 36,43 44,43 44,41 46,41 46,39 43,39 43,37 52,37 52,35 54,35 54,33 56,33 56,30 52,30 52,29 50,29 50,25 
	54,25 54,23 46,23 46,24 48,24 48,27 47,27 47,28 44,28 44,27 42,27 42,35 32,35 32,33 18,33 18,31 12,31 12,29 8.5,29 8.5,21.5 
	0,21.3 -0.1,35 6,35 6,37 8,37 8,41 0,41 0,52.9 "/>
</svg>
