<?xml version="1.0" encoding="utf-8"?>
<!-- Generator: Adobe Illustrator 16.2.0, SVG Export Plug-In . SVG Version: 6.00 Build 0)  -->
<!DOCTYPE svg PUBLIC "-//W3C//DTD SVG 1.1//EN" "http://www.w3.org/Graphics/SVG/1.1/DTD/svg11.dtd">
<svg version="1.1" id="Layer_1" xmlns="http://www.w3.org/2000/svg" xmlns:xlink="http://www.w3.org/1999/xlink" x="0px" y="0px"
	 width="612px" height="792px" viewBox="0 0 612 792" enable-background="new 0 0 612 792" xml:space="preserve">
<image overflow="visible" enable-background="new    " width="98" height="81" xlink:href="MVI_3178_3222_kid1.png"  transform="matrix(1 0 0 1 -2.439916e-004 2.441406e-004)">
</image>
<polygon opacity="0.7" fill="none" stroke="#00FF00" stroke-width="0.25" stroke-miterlimit="10" points="40,36 40,34 38,34 38,28 
	40,28 40,26 44,26 44,22 40,22 40,24 38,24 38,26 36,26 36,28 34,28 34,30 30,30 30,32 28,32 28,38 36,38 36,36 "/>
<polygon fill="none" stroke="#FFFF00" stroke-width="0.25" stroke-miterlimit="10" points="26,38 36,38 36,36 40,36 40,28 42,28 
	42,26 46,26 46,19 48,19 48,18 49,18 49,17 50,17 50,16 52,16 52,14 54,14 54,12 56,12 56,10 58,10 58,8 55,8 55,10 52,10 52,12 
	50,12 50,14 47,14 47,17 45,17 45,18 44,18 44,20 40,20 40,24 37,24 37,25 36,25 36,26 34,26 34,28 32,28 32,30 28,30 28,34 26,34 
	"/>
<polygon fill="none" stroke="#FFFF00" stroke-width="0.25" stroke-miterlimit="10" points="50,42 54,42 54,44 60,44 60,46 64,46 
	64,48 66,48 66,50 68,50 68,54 72,54 72,56 76,56 76,58 78,58 78,60 84,60 84,66 86,66 86,68 83,68 83,66 78,66 78,62 76,62 76,60 
	72,60 72,58 68,58 68,56 66,56 66,54 64,54 64,52 56,52 56,50 52,50 52,48 49,48 49,46 48,46 48,44 50,44 "/>
<polygon opacity="0.7" fill="none" stroke="#FFFF00" stroke-width="0.25" stroke-miterlimit="10" points="45,50 46,50 46,52 52,52 
	52,54 56,54 56,56 58,56 58,58 60,58 60,62 58,62 58,66 60,66 60,68 62,68 62,70 56,70 56,66 54,66 54,62 52,62 52,60 50,60 50,56 
	48,56 48,54 45,54 "/>
</svg>
