<?xml version="1.0" encoding="utf-8"?>
<!-- Generator: Adobe Illustrator 16.2.0, SVG Export Plug-In . SVG Version: 6.00 Build 0)  -->
<!DOCTYPE svg PUBLIC "-//W3C//DTD SVG 1.1//EN" "http://www.w3.org/Graphics/SVG/1.1/DTD/svg11.dtd">
<svg version="1.1" id="Layer_1" xmlns="http://www.w3.org/2000/svg" xmlns:xlink="http://www.w3.org/1999/xlink" x="0px" y="0px"
	 width="612px" height="792px" viewBox="0 0 612 792" enable-background="new 0 0 612 792" xml:space="preserve">
<image overflow="visible" enable-background="new    " width="100" height="53" xlink:href="MVI_3178_391_black1.png"  transform="matrix(1 0 0 1 -2.439916e-004 2.441406e-004)">
</image>
<polygon opacity="0.7" fill="none" stroke="#00FF00" stroke-width="0.25" stroke-miterlimit="10" points="42,24 46,24 46,22 48,22 
	48,20 52,20 52,18 56,18 56,16 58,16 58,14 60,14 60,12 70,12 70,14 76,14 76,16 78,16 78,18 80,18 82,18 82,20 84,20 84,22 81,22 
	81,21 80,21 80,20 78,20 78,19 76,19 76,18 74,18 74,17 72,17 72,16 68,16 68,15 62,15 62,16 61,16 61,17 60,17 60,18 58,18 58,20 
	56,20 56,22 54,22 54,24 52,24 52,26 48,26 48,28 44,28 44,26 42,26 "/>
<polygon opacity="0.7" fill="none" stroke="#FFFF00" stroke-width="0.25" stroke-miterlimit="10" points="68,10 68,12 74,12 74,14 
	76,14 76,16 80,16 80,18 84,18 84,20 88,20 88,22 94,22 94,25 92,25 92,28 84,28 84,26 86,26 86,22 80,22 80,20 76,20 76,18 72,18 
	72,17 62,17 62,18 60,18 60,20 58,20 58,22 56,22 56,24 54,24 54,26 52,26 52,28 50,28 50,30 44,30 44,28 42,28 42,24 44,24 44,22 
	46,22 46,20 50,20 50,18 54,18 54,16 56,16 56,14 58,14 58,12 60,12 60,10 "/>
<polygon opacity="0.7" fill="none" stroke="#FFFF00" stroke-width="0.25" stroke-miterlimit="10" points="32,38 36,38 36,40 40,40 
	40,42 44,42 44,44 52,44 52,48 40,48 40,44 36,44 36,42 32,42 "/>
<polygon opacity="0.7" fill="none" stroke="#FFFF00" stroke-width="0.25" stroke-miterlimit="10" points="28,12 32,12 32,14 34,14 
	34,16 36,16 36,18 38,18 38,22 32,22 32,17 30,17 30,14 28,14 "/>
<polygon opacity="0.7" fill="none" stroke="#FFFF00" stroke-width="0.25" stroke-miterlimit="10" points="4,12 12,12 12,14 14,14 
	14,16 20,16 20,18 22,18 22,20 24,20 24,22 24,24 20,24 20,22 18,22 18,20 12,20 12,18 10,18 10,16 6,16 6,14 4,14 "/>
</svg>
