<?xml version="1.0" encoding="utf-8"?>
<!-- Generator: Adobe Illustrator 16.2.0, SVG Export Plug-In . SVG Version: 6.00 Build 0)  -->
<!DOCTYPE svg PUBLIC "-//W3C//DTD SVG 1.1//EN" "http://www.w3.org/Graphics/SVG/1.1/DTD/svg11.dtd">
<svg version="1.1" id="Layer_1" xmlns="http://www.w3.org/2000/svg" xmlns:xlink="http://www.w3.org/1999/xlink" x="0px" y="0px"
	 width="612px" height="792px" viewBox="0 0 612 792" enable-background="new 0 0 612 792" xml:space="preserve">
<image overflow="visible" enable-background="new    " width="106" height="85" xlink:href="MVI_3177_3648_green.png"  transform="matrix(1 0 0 1 -2.439916e-004 2.441406e-004)">
</image>
<polygon opacity="0.7" fill="none" stroke="#00FF00" stroke-width="0.25" stroke-miterlimit="10" points="64,66 64,55 66,55 66,48 
	68,48 68,42 70,42 70,38 72,38 72,36 74,36 74,34 76,34 76,32 82,32 82,28 73,28 73,30 71,30 71,32 66,32 66,36 64,36 64,38 62,38 
	62,40 60,40 60,45 58,45 58,50 56,50 56,56 54,56 54,60 50,60 50,68 56,68 56,66 "/>
<polygon opacity="0.7" fill="none" stroke="#FFFF00" stroke-width="0.25" stroke-miterlimit="10" points="48,69.5 68,69.5 68,54 
	70.5,54 70.5,47.5 72,47.5 72,42 74,42 74,38 76,38 76,36 78,36 78,34 86,34 86,32 90,32 90,30 92.5,30 92.5,28 98,28 98,22 96,22 
	96,20 93,20 93,22 87,22 87,23 84,23 84,24 80,24 80,26 68,26 68,28 66,28 66,30 64,30 64,34 62,34 62,36 60,36 60,38 58,38 58,42 
	56,42 56,46 54,46 54,50 52,50 52,56 50,56 50,58 48,58 "/>
<polygon fill="none" stroke="#FFFF00" stroke-width="0.25" stroke-miterlimit="10" points="19,38 19,20 10,20 10,25.5 12,25.5 
	12,32 8,32 8,36 14,36 14,38 "/>
</svg>
