<?xml version="1.0" encoding="utf-8"?>
<!-- Generator: Adobe Illustrator 16.2.0, SVG Export Plug-In . SVG Version: 6.00 Build 0)  -->
<!DOCTYPE svg PUBLIC "-//W3C//DTD SVG 1.1//EN" "http://www.w3.org/Graphics/SVG/1.1/DTD/svg11.dtd">
<svg version="1.1" id="Layer_1" xmlns="http://www.w3.org/2000/svg" xmlns:xlink="http://www.w3.org/1999/xlink" x="0px" y="0px"
	 width="612px" height="792px" viewBox="0 0 612 792" enable-background="new 0 0 612 792" xml:space="preserve">
<image overflow="visible" enable-background="new    " width="82" height="65" xlink:href="MVI_3177_3672_green.png"  transform="matrix(1 0 0 1 -2.439916e-004 2.441406e-004)">
</image>
<polygon opacity="0.7" fill="none" stroke="#00FF00" stroke-width="0.25" stroke-miterlimit="10" points="60,53 60,55 66,55 66,53 
	68,53 68,47 66,47 66,39 62,39 62,34 60,34 60,31 58,31 58,25 58,23 55,23 55,14 58,14 58,11 66,11 66,9 46,9 46,14 48,14 48,19 
	47,19 47,22 48,22 48,25 50,25 50,47 54,47 54,49 56,49 56,51 58,51 58,53 "/>
<polygon fill="none" stroke="#FFFF00" stroke-width="0.25" stroke-miterlimit="10" points="70,55 70,41 68,41 68,37 66,37 66,33 
	64,33 64,31 62,31 62,27 60,27 60,23 58,23 58,19 60,19 60,15 62,15 62,12.5 66,12.5 66,9 46,9 46,23 48,23 48,47 50,47 50,49 
	52,49 52,53 58,53 58,55 "/>
<polygon fill="none" stroke="#FFFF00" stroke-width="0.25" stroke-miterlimit="10" points="18,17 18,35 16,35 16,33 14,33 14,31 
	12,31 12,29 8,29 8,25 10,25 10,23 14,23 14,17 "/>
</svg>
