<?xml version="1.0" encoding="utf-8"?>
<!-- Generator: Adobe Illustrator 16.2.0, SVG Export Plug-In . SVG Version: 6.00 Build 0)  -->
<!DOCTYPE svg PUBLIC "-//W3C//DTD SVG 1.1//EN" "http://www.w3.org/Graphics/SVG/1.1/DTD/svg11.dtd">
<svg version="1.1" id="Layer_1" xmlns="http://www.w3.org/2000/svg" xmlns:xlink="http://www.w3.org/1999/xlink" x="0px" y="0px"
	 width="612px" height="792px" viewBox="0 0 612 792" enable-background="new 0 0 612 792" xml:space="preserve">
<image overflow="visible" enable-background="new    " width="84" height="109" xlink:href="MVI_3178_657_kid1.png"  transform="matrix(1 0 0 1 -2.439916e-004 2.441406e-004)">
</image>
<polygon fill="none" stroke="#00FF00" stroke-width="0.25" stroke-miterlimit="10" points="40,62 40,56 42,56 42,50 44,50 44,48 
	46,48 46,41 48,41 48,38 50,38 50,34 52,34 52,32 56,32 56,30 58,30 58,28 60,28 60,26 64,26 64,24 68,24 68,22 70,22 70,20 64,20 
	64,22 60,22 60,24 58,24 58,26 54,26 54,28 50,28 50,30 48,30 48,32 46,32 46,34 44,34 44,36 42,36 42,40 40,40 40,42 38,42 38,48 
	36,48 36,50 34,50 34,52 32,52 32,55 32,56 30,56 30,58 28,58 28,60 26,60 26,62 24,62 24,64 28,64 28,62 "/>
<polygon opacity="0.7" fill="none" stroke="#FFFF00" stroke-width="0.25" stroke-miterlimit="10" points="37,64 37,66 44,66 44,62 
	42,62 42,56 44,56 44,52 46,52 46,48 48,48 48,44 50,44 50,38 52,38 52,34 56,34 56,32 58,32 58,30 60,30 60,28 64,28 64,25.5 
	66,25.5 66,24 70,24 70,20 74,20 74,16 68,16 68,18 64,18 64,20 62,20 62,22 58,22 58,24 54,24 54,26 50,26 50,28 46,28 46,30 
	44,30 44,34 40,34 40,38 38,38 38,40 36,40 36,48 34,48 34,50 32,50 32,52 30,52 30,56 28,56 28,58 24,58 24,62 22,62 22,64 "/>
<polygon opacity="0.7" fill="none" stroke="#FFFF00" stroke-width="0.25" stroke-miterlimit="10" points="24,102 32,102 32,92 
	29.5,92 29.5,90 26,90 26,94 24,94 "/>
</svg>
