<?xml version="1.0" encoding="utf-8"?>
<!-- Generator: Adobe Illustrator 16.2.0, SVG Export Plug-In . SVG Version: 6.00 Build 0)  -->
<!DOCTYPE svg PUBLIC "-//W3C//DTD SVG 1.1//EN" "http://www.w3.org/Graphics/SVG/1.1/DTD/svg11.dtd">
<svg version="1.1" id="Layer_1" xmlns="http://www.w3.org/2000/svg" xmlns:xlink="http://www.w3.org/1999/xlink" x="0px" y="0px"
	 width="612px" height="792px" viewBox="0 0 612 792" enable-background="new 0 0 612 792" xml:space="preserve">
<image overflow="visible" enable-background="new    " width="101" height="48" xlink:href="MVI_3178_393_black1.png"  transform="matrix(1 0 0 1 -2.439916e-004 2.441406e-004)">
</image>
<polygon opacity="0.7" fill="none" stroke="#00FF00" stroke-width="0.25" stroke-miterlimit="10" points="46,22 46,18 50,18 50,16 
	54,16 54,14 58,14 58,12 62,12 62,10 66,10 66,8 72,8 72,10 74,10 74,12 78,12 78,14 80,14 80,16 82,16 82,18 78,18 78,16 76,16 
	76,14 73,14 73,13 72,13 72,12 70,12 70,11 65,11 65,13 64,13 64,14 62,14 62,15 60,15 60,16 58,16 58,17 56,17 56,18 54,18 54,20 
	50,20 50,22 "/>
<polygon opacity="0.7" fill="none" stroke="#FFFF00" stroke-width="0.25" stroke-miterlimit="10" points="46,24 54,24 54,22 56,22 
	56,20 58,20 60,20 60,18 62.5,18 64,18 64,16 66,16 66,14 70,14 70,16 74,16 74,18 78,18 78,20 82,20 82,22 84,22 84,14 80,14 
	80,12 78,12 78,10 76,10 76,8 70,8 70,6 66,6 66,8 62,8 62,10 60,10 60,12 56,12 56,14 52,14 52,16 48,16 48,18 44,18 44,22 46,22 
	"/>
<polygon opacity="0.7" fill="none" stroke="#FFFF00" stroke-width="0.25" stroke-miterlimit="10" points="36,32 36,36 42,36 42,38 
	48,38 48,40 54,40 54,42 52,42 52,44 44.5,44 44.5,42 40,42 40,40 38,40 38,38 34,38 34,36 28,36 28,32 "/>
<polygon opacity="0.7" fill="none" stroke="#FFFF00" stroke-width="0.25" stroke-miterlimit="10" points="32,6 32,8 34,8 34,10 
	38,10 38,12 40,12 40,14 42,14 42,16 40,16 40,18 37,18 37,17 34,17 34,16 32,16 32,14 30,14 30,10 28,10 28,8 24,8 24,6 "/>
<polygon opacity="0.7" fill="none" stroke="#FFFF00" stroke-width="0.25" stroke-miterlimit="10" points="18,18 26,18 26,14 24,14 
	24,12 20,12 20,10 16,10 16,8 12,8 12,4 4,4 4,8 6,8 6,10 10,10 10,12 12,12 12,14 16,14 16,16 18,16 "/>
</svg>
