<?xml version="1.0" encoding="utf-8"?>
<!-- Generator: Adobe Illustrator 16.2.0, SVG Export Plug-In . SVG Version: 6.00 Build 0)  -->
<!DOCTYPE svg PUBLIC "-//W3C//DTD SVG 1.1//EN" "http://www.w3.org/Graphics/SVG/1.1/DTD/svg11.dtd">
<svg version="1.1" id="Layer_1" xmlns="http://www.w3.org/2000/svg" xmlns:xlink="http://www.w3.org/1999/xlink" x="0px" y="0px"
	 width="612px" height="792px" viewBox="0 0 612 792" enable-background="new 0 0 612 792" xml:space="preserve">
<image overflow="visible" enable-background="new    " width="71" height="80" xlink:href="MVI_3178_629_kid1.png"  transform="matrix(1 0 0 1 -2.439916e-004 2.441406e-004)">
</image>
<polygon opacity="0.7" fill="none" stroke="#00FF00" stroke-width="0.25" stroke-miterlimit="10" points="26,30 38,30 38,28 40,28 
	40,24 38,24 38,22 32,22 32,18 30,18 30,12 28,12 28,8 10,8 10,12 24,12 24,14 26,14 "/>
<polygon opacity="0.7" fill="none" stroke="#FFFF00" stroke-width="0.25" stroke-miterlimit="10" points="30,32 30,30 39,30 39,32 
	46,32 46,30 48,30 48,24 42,24 42,20 36,20 36,16 32,16 32,14 30,14 30,8 28,8 28,6 10,6 10,8 8,8 8,12 20,12 20,14 22,14 22,18 
	24,18 24,30 26,30 26,32 "/>
<polygon opacity="0.7" fill="none" stroke="#FFFF00" stroke-width="0.25" stroke-miterlimit="10" points="58,14 62,14 62,12 64,12 
	64,6 62,6 62,4 58,4 58,6 54,6 54,10 56,10 56,12 58,12 58,13 57,13 57,16 56,16 56,18 54,18 54,20 51,20 51,21 50,21 50,24 52,24 
	52,22 55,22 55,20 58,20 "/>
<polygon opacity="0.7" fill="none" stroke="#FFFF00" stroke-width="0.25" stroke-miterlimit="10" points="50,6 50,8 48,8 48,12 
	44,12 44,14 42,14 42,17 36,17 36,16 38,16 38,12 40,12 40,8 42,8 42,4 46,4 46,6 "/>
</svg>
