<?xml version="1.0" encoding="utf-8"?>
<!-- Generator: Adobe Illustrator 16.2.0, SVG Export Plug-In . SVG Version: 6.00 Build 0)  -->
<!DOCTYPE svg PUBLIC "-//W3C//DTD SVG 1.1//EN" "http://www.w3.org/Graphics/SVG/1.1/DTD/svg11.dtd">
<svg version="1.1" id="Layer_1" xmlns="http://www.w3.org/2000/svg" xmlns:xlink="http://www.w3.org/1999/xlink" x="0px" y="0px"
	 width="612px" height="792px" viewBox="0 0 612 792" enable-background="new 0 0 612 792" xml:space="preserve">
<image overflow="visible" enable-background="new    " width="112" height="101" xlink:href="MVI_3178_1918_black1.png"  transform="matrix(1 0 0 1 -2.439916e-004 2.441406e-004)">
</image>
<polygon opacity="0.7" fill="none" stroke="#00FF00" stroke-width="0.25" stroke-miterlimit="10" points="51,45 51,43 55,43 55,39 
	53,39 53,37 51,37 51,35 49,35 49,31 47,31 47,27 45,27 45,25 43,25 43,21 41,21 41,19 39,19 39,17 37,17 37,15 13,15 13,17 24,17 
	24,18 29,18 29,19 35,19 35,23 37,23 37,29 39,29 39,31 41,31 41,35 43,35 43,41 45,41 45,45 "/>
<polygon opacity="0.7" fill="none" stroke="#FFFF00" stroke-width="0.25" stroke-miterlimit="10" points="51,49 51,51 53,51 53,45 
	55,45 55,43 57,43 57,39 55,39 55,37 53,37 53,35 51,35 51,33 51,31 49,31 49,29 47,29 47,25 45,25 45,23 43,23 43,20.5 43,19 
	41,19 41,17 39,17 39,15 35,15 35,13 11,13 11,17 25,17 25,19 33,19 33,21 35,21 35,25 37,25 37,31 39,31 39,35 41,35 41,39 37,39 
	37,41 33,41 33,43 39,43 39,45 41,45 41,47 43,47 43,49 "/>
<polygon opacity="0.7" fill="none" stroke="#FFFF00" stroke-width="0.25" stroke-miterlimit="10" points="73,63 81,63 81,67 85,67 
	85,71 89,71 89,75 93,75 93,85 97,85 97,91 85,91 85,83 87.5,83 87.5,74.5 81,74.5 81,69 75,69 75,67 73,67 "/>
</svg>
