<?xml version="1.0" encoding="utf-8"?>
<!-- Generator: Adobe Illustrator 16.2.0, SVG Export Plug-In . SVG Version: 6.00 Build 0)  -->
<!DOCTYPE svg PUBLIC "-//W3C//DTD SVG 1.1//EN" "http://www.w3.org/Graphics/SVG/1.1/DTD/svg11.dtd">
<svg version="1.1" id="Layer_1" xmlns="http://www.w3.org/2000/svg" xmlns:xlink="http://www.w3.org/1999/xlink" x="0px" y="0px"
	 width="612px" height="792px" viewBox="0 0 612 792" enable-background="new 0 0 612 792" xml:space="preserve">
<image overflow="visible" enable-background="new    " width="70" height="93" xlink:href="MVI_3178_811_kid1.png"  transform="matrix(1 0 0 1 -2.439916e-004 2.441406e-004)">
</image>
<polygon opacity="0.7" fill="none" stroke="#00FF00" stroke-width="0.25" stroke-miterlimit="10" points="50,35 48,35 48,33 46,33 
	46,31 45,31 45,30 44,30 44,29 42,29 42,28 40,28 40,27 38,27 38,25 34,25 34,23 30,23 30,21 28,21 28,19 26,19 26,17 26,15 24,15 
	24,13 22,13 22,11 20,11 20,19 23,19 23,21 25,21 25,23 26,23 26,25 30,25 30,27 32,27 32,29 35,29 35,35 34,35 34,41 32,41 32,43 
	50,43 "/>
<polygon fill="none" stroke="#FFFF00" stroke-width="0.25" stroke-miterlimit="10" points="42,47 50,47 50,45 54,45 54,41 56,41 
	56,35 52,35 52,31 46,31 46,29 44,29 44,27 40,27 40,25 38,25 38,23 32,23 32,21 30,21 30,19 28,19 28,17 26,17 26,13 24,13 24,9 
	26,9 26,7 20,7 20,9 19,9 19,17.5 20,17 20,19 22,19 22,21 23,21 23,23 26,23 26,25 28,25 28,27 30,27 30,29 34,29 34,37 32,37 
	32,39 31,39 31,44 40,44 40,45 42,45 "/>
<polygon fill="none" stroke="#FFFF00" stroke-width="0.25" stroke-miterlimit="10" points="34,51 32,51 32,53 30,53 30,57 28,57 
	28,63 26,63 26,65 22,65 22,67 20,67 20,69 16,69 16,71 14,71 14,75 16,75 16,77 18,77 18,79 16,79 16,81 6,81 6,77 4,77 4,69 6,69 
	6,65 8,65 8,63 12,63 12,61 18,61 18,59 20,59 20,53 22,53 22,49 28,49 28,48 32,48 32,49 34,49 "/>
<polygon opacity="0.7" fill="none" stroke="#FFFF00" stroke-width="0.25" stroke-miterlimit="10" points="16,87 26,87 26,85 28,85 
	28,81 30,81 30,77 32,77 32,75 34,75 34,73 38,73 38,71 40,71 40,69 44,69 44,61 46,61 46,57 44,57 44,59 38,59 38,61 30,61 30,73 
	28,73 28,77 24,77 24,79 22,79 22,83 16,83 "/>
</svg>
