<?xml version="1.0" encoding="utf-8"?>
<!-- Generator: Adobe Illustrator 16.2.0, SVG Export Plug-In . SVG Version: 6.00 Build 0)  -->
<!DOCTYPE svg PUBLIC "-//W3C//DTD SVG 1.1//EN" "http://www.w3.org/Graphics/SVG/1.1/DTD/svg11.dtd">
<svg version="1.1" id="Layer_1" xmlns="http://www.w3.org/2000/svg" xmlns:xlink="http://www.w3.org/1999/xlink" x="0px" y="0px"
	 width="612px" height="792px" viewBox="0 0 612 792" enable-background="new 0 0 612 792" xml:space="preserve">
<image overflow="visible" enable-background="new    " width="96" height="64" xlink:href="MVI_3178_2090_black1.png"  transform="matrix(1 0 0 1 1.0037 2.441406e-004)">
</image>
<polygon fill="none" stroke="#00FF00" stroke-width="0.25" stroke-miterlimit="10" points="36,25 36,23 50,23 50,21 46,21 46,19 
	44,19 44,17 42,17 42,15 38,15 38,13 28,13 28,15 26,15 26,17 24,17 24,19 16,19 16,21 14,21 14,23 16,23 16,25 "/>
<polygon opacity="0.7" fill="none" stroke="#FFFF00" stroke-width="0.25" stroke-miterlimit="10" points="17,27 37,27 37,25 45,25 
	45,23 53,23 53,21 51,21 51,19 49,19 49,17 45,17 45,15 43,15 43,13 39,13 39,11 31,11 31,13 28,13 28,15 25,15 25,17 18,17 18,19 
	15,19 15,21 13,21 13,25 17,25 "/>
<polygon opacity="0.7" fill="none" stroke="#FFFF00" stroke-width="0.25" stroke-miterlimit="10" points="33,35 49,35 49,40 53,40 
	53,45 57,45 57,49 61,49 61,51 65,51 65,53 59,53 59,51 55,51 55,49 51,49 51,47 47,47 47,45 41,45 41,43 39,43 39,39 35,39 35,37 
	33,37 "/>
<polygon opacity="0.7" fill="none" stroke="#FFFF00" stroke-width="0.25" stroke-miterlimit="10" points="45,28 47,28 47,27 53,27 
	53,29 57,29 57,31 59,31 59,33 61,33 61,35 66.5,35 66.5,37 71,37 71,39 75,39 75,43 81,43 81,45 83,45 83,47 85,47 85,49 87,49 
	87,51 90.5,51 90.5,53 83.5,53 83.5,51 81,51 81,49 77,49 77,47 75,47 75,45 73,45 73,43 69,43 69,41 65,41 65,39 53,39 53,35 
	49,35 49,31 45,31 "/>
</svg>
