<?xml version="1.0" encoding="utf-8"?>
<!-- Generator: Adobe Illustrator 16.2.0, SVG Export Plug-In . SVG Version: 6.00 Build 0)  -->
<!DOCTYPE svg PUBLIC "-//W3C//DTD SVG 1.1//EN" "http://www.w3.org/Graphics/SVG/1.1/DTD/svg11.dtd">
<svg version="1.1" id="Layer_1" xmlns="http://www.w3.org/2000/svg" xmlns:xlink="http://www.w3.org/1999/xlink" x="0px" y="0px"
	 width="612px" height="792px" viewBox="0 0 612 792" enable-background="new 0 0 612 792" xml:space="preserve">
<image overflow="visible" enable-background="new    " width="78" height="67" xlink:href="MVI_3178_696_kid1.png"  transform="matrix(1 0 0 1 -2.439916e-004 2.441406e-004)">
</image>
<polygon opacity="0.7" fill="none" stroke="#00FF00" stroke-width="0.25" stroke-miterlimit="10" points="51,40 57,40 57,28 55,28 
	55,20 53,20 53,13 55,13 55,8 53,8 53,6 47,6 47,8 45,8 45,12 47,12 47,20 49,20 49,34 51,34 "/>
<polygon opacity="0.7" fill="none" stroke="#FFFF00" stroke-width="0.25" stroke-miterlimit="10" points="47,48 49,48 49,52 49,54 
	43,54 43,58 59,58 59,56 63,56 63,38 61,38 61,28 59,28 59,16 71,16 71,12 65,12 65,10 61,10 61,8 55,8 55,6 45,6 45,16 47,16 "/>
<polygon opacity="0.7" fill="none" stroke="#FFFF00" stroke-width="0.25" stroke-miterlimit="10" points="33,42 29,42 29,40 23,40 
	23,30 25,30 25,28 27,28 27,24 29,24 31,24 31,22 33,22 33,20 35,20 35,16.5 31,16.5 31,18 27,18 27,20 23,20 23,22 19,22 19,24 
	11,24 11,26 7,26 7,31.5 9,31.5 9,34 11,34 11,36 13,36 13,38 15,38 15,42 17,42 17,46 19,46 19,54 23,54 23,56 25.5,56 25.5,50 
	33,50 "/>
</svg>
