<?xml version="1.0" encoding="utf-8"?>
<!-- Generator: Adobe Illustrator 16.2.0, SVG Export Plug-In . SVG Version: 6.00 Build 0)  -->
<!DOCTYPE svg PUBLIC "-//W3C//DTD SVG 1.1//EN" "http://www.w3.org/Graphics/SVG/1.1/DTD/svg11.dtd">
<svg version="1.1" id="Layer_1" xmlns="http://www.w3.org/2000/svg" xmlns:xlink="http://www.w3.org/1999/xlink" x="0px" y="0px"
	 width="612px" height="792px" viewBox="0 0 612 792" enable-background="new 0 0 612 792" xml:space="preserve">
<image overflow="visible" enable-background="new    " width="185" height="65" xlink:href="MVI_3177_3037_leftman2.png"  transform="matrix(1 0 0 1 -2.439916e-004 2.441406e-004)">
</image>
<polygon opacity="0.7" fill="none" stroke="#00FF00" stroke-width="0.25" points="77,34 85,34 85,32 91,32 91,30 99,30 99,34 97,34 
	97,38 97,42 90,42 90,40 81,40 81,37 79,37 79,36 77,36 "/>
<polygon opacity="0.7" fill="none" stroke="#FFFF00" stroke-width="0.25" points="75,52 83,52 83,50 87,50 87,48 91,48 91,46 95,46 
	95,44 99,44 99,42 101,42 101,40 103,40 105,40 105,38 109,38 109,36 115,36 115,34 119,34 119,30 115,30 115,29 113,29 113,28 
	105,28 103,28 103,26 95,26 95,28 91,28 91,30 85,30 85,32 75,32 75,35 76,35 76,37 78,37 78,43 77,43 77,46 81,46 81,48 77,48 
	77,50 71,50 71,52 65,52 65,54 75,54 "/>
<polygon fill="none" stroke="#FFFF00" stroke-width="0.25" points="127,26 136,26 136,27 139,27 143,27 143,26 147,26 147,24 
	153,24 153,22 157,22 157,20 161,20 161,18.5 165,18.5 165,16 169,16 169,14 173,14 173,11 171,11 171,10 167,10 167,12 159,12 
	159,14 155,14 155,16 151,16 151,18 147,18 143,18 143,22 137,22 137,24 127,24 "/>
<polygon fill="none" stroke="#FFFF00" stroke-width="0.25" points="55,39 51,39 51,40 49,40 49,42 45,42 45,44 39,44 39,46 35,46 
	35,48 31,48 31,50 37,50 37,48 55,48 "/>
</svg>
