<?xml version="1.0" encoding="utf-8"?>
<!-- Generator: Adobe Illustrator 16.2.0, SVG Export Plug-In . SVG Version: 6.00 Build 0)  -->
<!DOCTYPE svg PUBLIC "-//W3C//DTD SVG 1.1//EN" "http://www.w3.org/Graphics/SVG/1.1/DTD/svg11.dtd">
<svg version="1.1" id="Layer_1" xmlns="http://www.w3.org/2000/svg" xmlns:xlink="http://www.w3.org/1999/xlink" x="0px" y="0px"
	 width="612px" height="792px" viewBox="0 0 612 792" enable-background="new 0 0 612 792" xml:space="preserve">
<image overflow="visible" enable-background="new    " width="107" height="112" xlink:href="MVI_3178_585_black1.png"  transform="matrix(1 0 0 1 -2.439916e-004 2.441406e-004)">
</image>
<polygon opacity="0.7" fill="none" stroke="#00FF00" stroke-width="0.25" stroke-miterlimit="10" points="38,48 48,48 48,44 54,44 
	54,46 60,46 60,44 62,44 62,41 60,41 60,38 58,38 58,30 56,30 56,28 54,28 54,26 52,26 52,24 50,24 50,18 38,18 38,22 40,22 40,30 
	42,30 42,36 40,36 40,40 42,40 42,44 38,44 "/>
<polygon opacity="0.7" fill="none" stroke="#FFFF00" stroke-width="0.25" stroke-miterlimit="10" points="66,34 64,34 64,30 58,30 
	58,28 54,28 54,25 52,25 52,20 50,20 50,16 47,16 47,18 40,18 40,16 38,16 38,20 36,20 36,46 34,46 34,48 30,48 30,50 22,50 22,52 
	12.5,52 12.5,54 14,54 14,56 22.5,56 22.5,54 28.5,54 28.5,52 32,52 32,50 36,50 36,48 66,48 "/>
<polygon opacity="0.7" fill="none" stroke="#FFFF00" stroke-width="0.25" stroke-miterlimit="10" points="62,52 62,54 68,54 
	68,59.5 64,59.5 64,63.5 60.5,63.5 60.5,75.5 64,75.5 64,78.5 69,78.5 69,88 67.5,88 67.5,92 70,92 70,96 72,96 72,100 70,100 
	70,104 64,104 64,96 60,96 60,90 56,90 56,84 52,84 52,80 50,80 50,76 46,76 46,72 42,72 42,70 40,70 40,55.5 42,55.5 42,52 "/>
<polygon opacity="0.7" fill="none" stroke="#FFFF00" stroke-width="0.25" stroke-miterlimit="10" points="68,71.5 70,71.5 70,76 
	72.5,76 72.5,80 76,80 76,84 82,84 82,104 86,104 86,101.5 90.5,101.5 90.5,100 94,100 94,98 96,98 96,95.5 94,95.5 94,90 92,90 
	92,86 90,86 90,78 86,78 86,72 82,72 82,64 74,64 74,66 68,66 "/>
</svg>
