<?xml version="1.0" encoding="utf-8"?>
<!-- Generator: Adobe Illustrator 16.2.0, SVG Export Plug-In . SVG Version: 6.00 Build 0)  -->
<!DOCTYPE svg PUBLIC "-//W3C//DTD SVG 1.1//EN" "http://www.w3.org/Graphics/SVG/1.1/DTD/svg11.dtd">
<svg version="1.1" id="Layer_1" xmlns="http://www.w3.org/2000/svg" xmlns:xlink="http://www.w3.org/1999/xlink" x="0px" y="0px"
	 width="612px" height="792px" viewBox="0 0 612 792" enable-background="new 0 0 612 792" xml:space="preserve">
<image overflow="visible" enable-background="new    " width="111" height="91" xlink:href="MVI_3178_440_black1.png"  transform="matrix(1 0 0 1 -2.439916e-004 2.441406e-004)">
</image>
<polygon opacity="0.7" fill="none" stroke="#00FF00" stroke-width="0.25" stroke-miterlimit="10" points="69,43 71,43 71,39 73,39 
	73,35 75,35 75,33 77,33 77,28 79,28 79,25 81,25 81,23 83,23 83,20 91,20 93,20 93,18 91,18 91,17 79,17 79,19 77,19 77,21 75,21 
	75,23 73,23 73,27 71,27 71,29 69,29 69,35 65,35 65,37 63,37 63,41 69,41 "/>
<polygon opacity="0.7" fill="none" stroke="#FFFF00" stroke-width="0.25" stroke-miterlimit="10" points="65,45 69,45 69,47 71,47 
	71,45 73,45 73,41 75,41 75,37 77,37 77,33 79,33 79,27 81,27 81,25 83,25 83,23 85,23 85,21 103,21 103,17 93,17 93,15 79,15 
	79,17 77,17 77,19 75,19 75,21 73,21 73,23 73,25 71,25 71,27 69,27 69,29 67,29 67,33 63,33 63,37 61,37 61,41 65,41 "/>
<polygon opacity="0.7" fill="none" stroke="#FFFF00" stroke-width="0.25" stroke-miterlimit="10" points="33,13 33,15 35,15 35,19 
	37,19 37,23 39,23 39,27 43,27 43,31 51,31 51,33 53,33 53,27 51,27 51,23 49,23 49,19 45,19 45,15 41,15 41,13 "/>
<polygon opacity="0.7" fill="none" stroke="#FFFF00" stroke-width="0.25" stroke-miterlimit="10" points="29,25 29,31 23,31 23,29 
	19,29 19,27 17,27 17,25 15,25 15,22 13,22 13,17 9,17 9,15 19,15 19,19 21,19 21,21 23,21 23,23 25,23 25,25 "/>
<polygon opacity="0.7" fill="none" stroke="#FFFF00" stroke-width="0.25" stroke-miterlimit="10" points="61,37 57,37 57,33 45,33 
	45,42 40,42 40,47 47,47 47,43 51,43 51,41 57,41 57,39 61,39 "/>
<polygon opacity="0.7" fill="none" stroke="#FFFF00" stroke-width="0.25" stroke-miterlimit="10" points="47,57 53,57 53,59 57,59 
	57,65 59,65 59,69 63,69 63,71 69,71 69,73 85,73 85,83 69,83 69,79 63,79 63,73 57,73 57,71 49,71 49,67 45,67 45,59 47,59 "/>
</svg>
