<?xml version="1.0" encoding="utf-8"?>
<!-- Generator: Adobe Illustrator 16.2.0, SVG Export Plug-In . SVG Version: 6.00 Build 0)  -->
<!DOCTYPE svg PUBLIC "-//W3C//DTD SVG 1.1//EN" "http://www.w3.org/Graphics/SVG/1.1/DTD/svg11.dtd">
<svg version="1.1" id="Layer_1" xmlns="http://www.w3.org/2000/svg" xmlns:xlink="http://www.w3.org/1999/xlink" x="0px" y="0px"
	 width="612px" height="792px" viewBox="0 0 612 792" enable-background="new 0 0 612 792" xml:space="preserve">
<image overflow="visible" enable-background="new    " width="87" height="50" xlink:href="MVI_3178_363_black1.png"  transform="matrix(1 0 0 1 -2.439916e-004 2.441406e-004)">
</image>
<polygon opacity="0.7" fill="none" stroke="#00FF00" stroke-width="0.25" stroke-miterlimit="10" points="42,22 46,22 46,18 42,18 
	42,16 40,16 40,14 38,14 38,12 34,12 34,10 22,10 22,12 33,12 33,14 35,14 35,15 36,15 36,16 38,16 38,18 40,18 40,20 42,20 "/>
<polygon fill="none" stroke="#FFFF00" stroke-width="0.25" stroke-miterlimit="10" points="50,26 50,24 52,24 52,22 50,22 50,20 
	48,20 48,18 46,18 46,16 44,16 44,14 38,14 38,12 36,12 36,10 32,10 32,8 14,8 14,12 27,12 27,14 32,14 32,16 34,16 34,19 36,19 
	36,20 38,20 38,22 36,22 36,24 38,24 38,26 "/>
<polygon opacity="0.7" fill="none" stroke="#FFFF00" stroke-width="0.25" stroke-miterlimit="10" points="70,42 76,42 76,40 74,40 
	74,38 72,38 72,36 70,36 70,34 66,34 66,36 68,36 68,38 70,38 "/>
</svg>
