<?xml version="1.0" encoding="utf-8"?>
<!-- Generator: Adobe Illustrator 16.2.0, SVG Export Plug-In . SVG Version: 6.00 Build 0)  -->
<!DOCTYPE svg PUBLIC "-//W3C//DTD SVG 1.1//EN" "http://www.w3.org/Graphics/SVG/1.1/DTD/svg11.dtd">
<svg version="1.1" id="Layer_1" xmlns="http://www.w3.org/2000/svg" xmlns:xlink="http://www.w3.org/1999/xlink" x="0px" y="0px"
	 width="612px" height="792px" viewBox="0 0 612 792" enable-background="new 0 0 612 792" xml:space="preserve">
<image overflow="visible" enable-background="new    " width="112" height="63" xlink:href="MVI_3176_1491_kid1.png"  transform="matrix(1 0 0 1 -2.439916e-004 2.441406e-004)">
</image>
<polygon fill="none" stroke="#00FF00" stroke-width="0.25" stroke-miterlimit="10" points="51,25 51,26 52,26 52,27 55,27 55,29 
	53,29 51.2,29 49,29 49,27 47,27 47,25 43,25 43,23 39,23 39,21 37,21 37,19 41,19 41,21 43,21 45,21 45,23 49,23 49,25 "/>
<polygon opacity="0.7" fill="none" stroke="#FFFF00" stroke-width="0.25" stroke-miterlimit="10" points="61,33 61,31 59,31 59,29 
	57,29 57,27 53,27 53,25 51,25 51,23 47,23 47,21 45,21 43,21 43,19 41,19 41,17 39,17 39,15 35,15 35,13 31,13 31,11 23,11 23,9 
	13,9 13,10 14,10 14,11 17,11 19,11 19,12 21,12 21,13 23,13 23,15 25,15 25,17 31,17 31,19 35,19 35,21 37,21 37,23 39,23 39,25 
	43,25 43,27 47,27 47,29 49,29 49,31 57,31 57,33 "/>
</svg>
