<?xml version="1.0" encoding="utf-8"?>
<!-- Generator: Adobe Illustrator 16.2.0, SVG Export Plug-In . SVG Version: 6.00 Build 0)  -->
<!DOCTYPE svg PUBLIC "-//W3C//DTD SVG 1.1//EN" "http://www.w3.org/Graphics/SVG/1.1/DTD/svg11.dtd">
<svg version="1.1" id="Layer_1" xmlns="http://www.w3.org/2000/svg" xmlns:xlink="http://www.w3.org/1999/xlink" x="0px" y="0px"
	 width="612px" height="792px" viewBox="0 0 612 792" enable-background="new 0 0 612 792" xml:space="preserve">
<image overflow="visible" enable-background="new    " width="78" height="72" xlink:href="MVI_3177_3791_green.png"  transform="matrix(1 0 0 1 -2.439916e-004 2.441406e-004)">
</image>
<polygon opacity="0.7" fill="none" stroke="#00FF00" stroke-width="0.25" stroke-miterlimit="10" points="29,29 29,19 27,19 27,17 
	23,17 23,15 39,15 39,21 47,21 47,25 47,27 37,27 37,29 "/>
<polygon opacity="0.7" fill="none" stroke="#FFFF00" stroke-width="0.25" stroke-miterlimit="10" points="55,31 55,23 53,23 53,21 
	49,21 49,19 47,19 47,17 45,17 45,15 33,15 33,13 27,13 27,11 23,11 23,9 15,9 15,11 13,11 13,15 17,15 17,17 18.5,17 18.5,19 
	25,19 25,29 27,29 27,31 35,31 35,30 37,30 37,29 43,29 43,31 "/>
<polygon opacity="0.7" fill="none" stroke="#FFFF00" stroke-width="0.25" stroke-miterlimit="10" points="47,43 47,47 45,47 45,53 
	47,53 47,57 39.5,57 39.5,59 37,59 37,61 35,61 35,57 35,55 33,55 33,53 33,51 29,51 29,47 27,47 27,45 25,45 25,37 25,35 27,35 
	31,35 31,34 35,34 35,35 36,35 36,36 37,36 37,39 41,39 41,41 43,41 43,43 "/>
<polygon opacity="0.7" fill="none" stroke="#FFFF00" stroke-width="0.25" stroke-miterlimit="10" points="57,65 57,63 59,63 59,57 
	61,57 61,47 59,47 59,45 57,45 57,39 53,39 53,41 51,41 51,43 47,43 47,49 49,49 49,53 51,53 51,59 49,59 49,61 47,61 47,65 "/>
</svg>
