<?xml version="1.0" encoding="utf-8"?>
<!-- Generator: Adobe Illustrator 16.2.0, SVG Export Plug-In . SVG Version: 6.00 Build 0)  -->
<!DOCTYPE svg PUBLIC "-//W3C//DTD SVG 1.1//EN" "http://www.w3.org/Graphics/SVG/1.1/DTD/svg11.dtd">
<svg version="1.1" id="Layer_1" xmlns="http://www.w3.org/2000/svg" xmlns:xlink="http://www.w3.org/1999/xlink" x="0px" y="0px"
	 width="640px" height="476px" viewBox="0 0 640 476" enable-background="new 0 0 640 476" xml:space="preserve">
<image overflow="visible" enable-background="new    " width="640" height="476" xlink:href="MVI_3177_0127_640x476.png"  transform="matrix(1 0 0 1 0 0)">
</image>
<polygon fill="none" stroke="#FFFFFF" stroke-width="0.1312" points="177.362,209.562 185.848,206.677 189.785,197.93 
	201.508,199.854 203.258,204.665 203.258,210.349 210.082,213.76 210.082,216.909 202.821,218.57 196.26,218.57 191.885,221.194 
	189.173,222.942 184.098,224.255 149.716,235.362 138.08,229.764 140.355,220.669 "/>
<polygon fill="none" stroke="#FFFFFF" stroke-width="0.1312" points="222.069,134.876 225.918,119.134 235.717,120.884 
	235.717,151.317 224.518,151.317 "/>
<polygon fill="none" stroke="#FFFFFF" stroke-width="0.1312" points="249.365,151.317 249.365,129.629 245.516,127.88 
	249.365,119.134 261.264,123.332 257.064,132.077 257.064,141.872 264.063,147.82 259.514,151.317 "/>
<polygon fill="none" stroke="#FFFFFF" stroke-width="0.1312" points="338.252,142.572 350.5,139.773 348.4,131.727 328.453,129.279 
	325.467,134.921 "/>
<polygon fill="none" stroke="#FFFFFF" stroke-width="0.1312" points="373.597,191.198 389.695,183.85 404.043,183.85 
	405.793,193.995 378.498,209.038 354.701,207.289 358.549,197.93 "/>
<polygon fill="none" stroke="#FFFFFF" stroke-width="0.1312" points="373.597,177.204 390.045,177.204 400.193,168.808 
	377.447,164.261 373.597,170.733 "/>
<polygon fill="none" stroke="#FFFFFF" stroke-width="0.1312" points="414.892,288.446 431.34,288.446 486.281,276.552 
	510.779,231.427 505.879,219.532 477.183,219.532 452.338,233.876 422.24,262.559 405.793,277.952 407.892,286.346 "/>
<polygon fill="none" stroke="#FFFFFF" stroke-width="0.1312" points="449.886,151.317 468.435,151.317 468.435,119.134 
	454.787,119.134 "/>
<polygon fill="none" stroke="#FFFFFF" stroke-width="0.1312" points="477.533,135.926 482.433,148.169 494.681,148.169 
	500.279,122.282 483.832,122.282 "/>
<polygon fill="none" stroke="#FFFFFF" stroke-width="0.1312" points="500.279,153.066 513.927,153.066 522.677,164.261 
	518.478,170.733 507.279,170.733 500.279,164.261 "/>
<polygon fill="none" stroke="#FFFFFF" stroke-width="0.1312" points="593.834,156.681 600.367,177.204 625.562,177.204 
	631.629,156.681 612.732,151.317 "/>
</svg>
