<?xml version="1.0" encoding="utf-8"?>
<!-- Generator: Adobe Illustrator 16.0.0, SVG Export Plug-In . SVG Version: 6.00 Build 0)  -->
<!DOCTYPE svg PUBLIC "-//W3C//DTD SVG 1.1//EN" "http://www.w3.org/Graphics/SVG/1.1/DTD/svg11.dtd">
<svg version="1.1" id="Layer_1" xmlns="http://www.w3.org/2000/svg" xmlns:xlink="http://www.w3.org/1999/xlink" x="0px" y="0px"
	 width="640px" height="476px" viewBox="0 0 640 476" enable-background="new 0 0 640 476" xml:space="preserve">
<image overflow="visible" enable-background="new    " width="183" height="102" xlink:href="MVI_4636_r1.png"  transform="matrix(0.7586 0 0 0.7586 0 9.765625e-004)">
</image>
<polygon fill="none" stroke="#FF0000" stroke-width="0.25" points="23.814,11.594 22.268,14.688 27.219,13.76 33.872,16.391 
	36.657,14.998 43.774,15.462 45.321,22.639 50.582,27.686 53.831,30.78 48.106,32.946 48.106,35.267 8.652,32.172 9.425,30.315 
	4.629,26.448 8.033,24.746 11.282,20.259 8.033,19.021 13.25,14.534 9.425,13.605 12.125,10.011 "/>
<polygon fill="none" stroke="#FF0000" stroke-width="0.25" points="15.459,38.69 44.415,40.033 53.831,45.788 42.072,51.822 
	39.441,58.785 16.852,56.928 14.067,55.071 15.924,54.143 20.565,54.452 23.505,44.859 10.372,42.801 14.841,42.075 "/>
<polygon fill="none" stroke="#FFFF00" stroke-width="0.25" points="137.878,15.163 137.878,37.68 11.542,32.398 12.105,10.766 "/>
<polygon fill="none" stroke="#FFFF00" stroke-width="0.25" points="137.259,42.961 137.878,73.252 12.904,66.522 15.085,38.69 "/>
</svg>
