<?xml version="1.0" encoding="utf-8"?>
<!-- Generator: Adobe Illustrator 16.0.0, SVG Export Plug-In . SVG Version: 6.00 Build 0)  -->
<!DOCTYPE svg PUBLIC "-//W3C//DTD SVG 1.1//EN" "http://www.w3.org/Graphics/SVG/1.1/DTD/svg11.dtd">
<svg version="1.1" id="Layer_1" xmlns="http://www.w3.org/2000/svg" xmlns:xlink="http://www.w3.org/1999/xlink" x="0px" y="0px"
	 width="640px" height="476px" viewBox="0 0 640 476" enable-background="new 0 0 640 476" xml:space="preserve">
<image overflow="visible" enable-background="new    " width="85" height="90" xlink:href="MVI_4635_r2.png"  transform="matrix(1.2839 0 0 1.2839 0 9.765625e-004)">
</image>
<polygon fill="none" stroke="#FF0000" stroke-width="0.25" points="36.875,10.011 42.614,19.464 47.125,19.375 46.25,28.75 
	54.565,29.25 57.125,35 54.88,41.25 20.091,38.782 20.25,33.875 15.896,32.141 21.572,28.507 22.75,22.375 14.5,21.375 
	12.125,14.25 "/>
<polygon fill="none" stroke="#FF0000" stroke-width="0.25" points="21,48.875 65.114,50.875 52.25,54.375 52.125,69.375 
	47.75,70.875 46.52,76.076 52.875,76.375 53.188,82.24 26.375,79.375 17.744,75.468 23.375,71.5 22.875,66.133 21.25,61.25 
	17.744,57.612 13.25,54.875 "/>
<polygon fill="none" stroke="#FF0000" stroke-width="0.25" points="32.625,91.549 62.935,92.771 68.935,98.634 76.49,101.802 
	73.156,105.202 58.934,105.438 58.158,110.13 51.38,108.019 50.75,98.375 38.867,98.877 37.714,94.765 32.625,94.529 "/>
<polygon fill="none" stroke="#FFFF00" stroke-width="0.25" points="107.39,16.067 107.39,42.372 1.34,37.377 1.34,12.064 "/>
<polygon fill="none" stroke="#FFFF00" stroke-width="0.25" points="107.39,51.195 108.223,84.325 1.34,78.998 1.34,47.192 "/>
<polygon fill="none" stroke="#FFFF00" stroke-width="0.25" points="107.39,95.313 108.223,114.625 3.082,114.079 3.082,88.767 "/>
</svg>
