<?xml version="1.0" encoding="utf-8"?>
<!-- Generator: Adobe Illustrator 16.2.0, SVG Export Plug-In . SVG Version: 6.00 Build 0)  -->
<!DOCTYPE svg PUBLIC "-//W3C//DTD SVG 1.1//EN" "http://www.w3.org/Graphics/SVG/1.1/DTD/svg11.dtd">
<svg version="1.1" id="Layer_1" xmlns="http://www.w3.org/2000/svg" xmlns:xlink="http://www.w3.org/1999/xlink" x="0px" y="0px"
	 width="612px" height="792px" viewBox="0 0 612 792" enable-background="new 0 0 612 792" xml:space="preserve">
<image overflow="visible" width="143" height="211" xlink:href="LaneSeparatorRed01.png"  transform="matrix(0.9999 0 0 0.9999 0 0)">
</image>
<path fill="#FFFFFF" d="M-115-38"/>
<polygon fill="none" points="12,6 16,6 16,4 23,4 23,8 26,8 26,11 27,11 27,15 31,15 31,19 34,19 34,23 35,23 35,27 38,27 38,31 
	39,31 39,34 42,34 42,42 46,42 46,50 50,50 50,53 53,53 53,59 54,59 54,61 57,61 57,65 58,65 58,69 61,69 61,73 62,73 62,76 65,76 
	65,84 69,84 69,88 72,88 72,92 73,92 73,96 76,96 76,99 77,99 77,103 80,103 80,107 84,107 84,111 85,111 85,115 88,115 88,122 
	92,122 92,126 95,126 95,130 96,130 96,134 99,134 99,141 103,141 103,149 107,149 107,157 111,157 111,162 114,162 114,168 
	118,168 118,172 119,172 119,176 122,176 122,180 126,180 126,187 130,187 130,191 134,191 134,195 104,195 104,191 100,191 
	100,187 96,187 96,183 93,183 93,179 92,179 92,172 89,172 89,168 88,168 88,164 85,164 85,156 81,156 81,149 77,149 77,138 73,138 
	73,132 70,132 70,129 69,129 69,122 66,122 66,118 62,118 62,111 58,111 58,103 54,103 54,92 50,92 50,84 46,84 46,80 43,80 43,72 
	39,72 39,61 35,61 35,53 32,53 32,46 28,46 28,38 24,38 24,31 20,31 20,23 16,23 16,15 12,15 "/>
</svg>
