<?xml version="1.0" encoding="utf-8"?>
<!-- Generator: Adobe Illustrator 16.2.0, SVG Export Plug-In . SVG Version: 6.00 Build 0)  -->
<!DOCTYPE svg PUBLIC "-//W3C//DTD SVG 1.1//EN" "http://www.w3.org/Graphics/SVG/1.1/DTD/svg11.dtd">
<svg version="1.1" id="Layer_1" xmlns="http://www.w3.org/2000/svg" xmlns:xlink="http://www.w3.org/1999/xlink" x="0px" y="0px"
	 width="612px" height="792px" viewBox="0 0 612 792" enable-background="new 0 0 612 792" xml:space="preserve">
<image overflow="visible" width="46" height="50" xlink:href="LaneSeparatorWhite02.png"  transform="matrix(0.9999 0 0 0.9999 -3 0)">
</image>
<polygon fill="#FFFFFF" stroke="#00FF00" stroke-width="0.25" stroke-miterlimit="10" points="7,6 14,6 14,8 17,8 17,11 18,11 
	18,13 20,13 20,17 22,17 22,21 24,21 24,24 26,24 26,27 28,27 28,29 29,29 29,31 30,31 30,33 31,33 31,35 32,35 32,38 20,38 20,35 
	17,35 17,30 16,30 16,28 15,28 15,26 11,26 11,21 9,21 9,19 7,19 7,15 5,15 5,13 4,13 4,8 7,8 "/>
</svg>
