<?xml version="1.0" encoding="utf-8"?>
<!-- Generator: Adobe Illustrator 16.2.0, SVG Export Plug-In . SVG Version: 6.00 Build 0)  -->
<!DOCTYPE svg PUBLIC "-//W3C//DTD SVG 1.1//EN" "http://www.w3.org/Graphics/SVG/1.1/DTD/svg11.dtd">
<svg version="1.1" id="Layer_1" xmlns="http://www.w3.org/2000/svg" xmlns:xlink="http://www.w3.org/1999/xlink" x="0px" y="0px"
	 width="612px" height="792px" viewBox="0 0 612 792" enable-background="new 0 0 612 792" xml:space="preserve">
<image overflow="visible" width="114" height="52" xlink:href="LaneSeparatorWhite03.png"  transform="matrix(0.9999 0 0 0.9999 0 0)">
</image>
<path fill="#FFFFFF" d="M-33,22"/>
<polygon fill="#FFFFFF" stroke="#00FF00" stroke-width="0.25" stroke-miterlimit="10" points="12,10 12,12 21,12 21,13 24,13 24,14 
	27,14 27,15 33,15 33,17 37,17 37,18 42,18 42,20 48,20 48,22 59,22 59,24 70,24 70,26 77,26 77,28 81,28 81,30 88,30 88,32 96,32 
	96,34 100,34 100,36 104,36 104,40 97,40 97,39 93,39 93,37 89,37 89,36 82,36 82,34 78,34 78,33 76,33 76,32 62,32 62,29 54,29 
	54,28 47,28 40,28 40,25 36,25 36,23 32,23 32,22 26,22 26,21 24,21 24,19 17,19 17,17 15,17 15,16 7,16 7,10 "/>
</svg>
