<?xml version="1.0" encoding="utf-8"?>
<!-- Generator: Adobe Illustrator 16.2.0, SVG Export Plug-In . SVG Version: 6.00 Build 0)  -->
<!DOCTYPE svg PUBLIC "-//W3C//DTD SVG 1.1//EN" "http://www.w3.org/Graphics/SVG/1.1/DTD/svg11.dtd">
<svg version="1.1" id="Layer_1" xmlns="http://www.w3.org/2000/svg" xmlns:xlink="http://www.w3.org/1999/xlink" x="0px" y="0px"
	 width="612px" height="792px" viewBox="0 0 612 792" enable-background="new 0 0 612 792" xml:space="preserve">
<image overflow="visible" width="90" height="38" xlink:href="LaneSeparatorWhite04.png"  transform="matrix(0.9999 0 0 0.9999 0 0)">
</image>
<polygon fill="none" stroke="#00FF00" stroke-width="0.25" stroke-miterlimit="10" points="10,27 15,27 15,25 19,25 19,24 25,24 
	25,23 30,23 30,22 32,22 32,20 33,20 33,19 39,19 39,18 41,18 41,17 44,17 44,15 48,15 48,14 53,14 53,13 57,13 57,12 59,12 59,11 
	66,11 66,9 73,9 73,7 76,7 76,9 78,9 78,11 74,11 74,13 67,13 67,15 59,15 59,16 55,16 55,17 52,17 52,19 50,19 50,21 47,21 47,26 
	32,26 32,27 27,27 27,29 20,29 20,30 10,30 "/>
</svg>
