<?xml version="1.0" encoding="utf-8"?>
<!-- Generator: Adobe Illustrator 16.2.0, SVG Export Plug-In . SVG Version: 6.00 Build 0)  -->
<!DOCTYPE svg PUBLIC "-//W3C//DTD SVG 1.1//EN" "http://www.w3.org/Graphics/SVG/1.1/DTD/svg11.dtd">
<svg version="1.1" id="Layer_1" xmlns="http://www.w3.org/2000/svg" xmlns:xlink="http://www.w3.org/1999/xlink" x="0px" y="0px"
	 width="612px" height="792px" viewBox="0 0 612 792" enable-background="new 0 0 612 792" xml:space="preserve">
<image overflow="visible" width="82" height="53" xlink:href="LaneSeparatorWhite01.png"  transform="matrix(0.9999 0 0 0.9999 0 0)">
</image>
<polygon fill="none" stroke="#00FF00" stroke-width="0.25" stroke-miterlimit="10" points="6,44 6,41 8,41 8,39 11,39 11,37 14,37 
	14,36 17,36 17,34 21,34 21,32 23,32 23,30 27,30 27,28 30,28 30,26 33,26 33,25 35,25 35,24 37,24 37,22 40,22 40,20 43,20 43,19 
	45,19 45,18 47,18 47,17 49,17 49,15 52,15 52,14 54,14 54,13 56,13 56,11 59,11 59,9 63,9 63,7 67,7 67,5 73,5 73,10 67,10 67,13 
	63,13 63,14 60,14 60,16 57,16 57,18 55,18 55,20 52,20 52,22 49,22 49,24 46,24 46,26 44,26 44,29 42,29 42,31 39,31 39,33 37,33 
	37,35 35,35 35,37 31,37 31,39 25,39 25,41 21,41 21,43 18,43 18,45 10,45 10,44 "/>
</svg>
