<?xml version="1.0" encoding="utf-8"?>
<!-- Generator: Adobe Illustrator 16.2.0, SVG Export Plug-In . SVG Version: 6.00 Build 0)  -->
<!DOCTYPE svg PUBLIC "-//W3C//DTD SVG 1.1//EN" "http://www.w3.org/Graphics/SVG/1.1/DTD/svg11.dtd">
<svg version="1.1" id="Layer_1" xmlns="http://www.w3.org/2000/svg" xmlns:xlink="http://www.w3.org/1999/xlink" x="0px" y="0px"
	 width="612px" height="792px" viewBox="0 0 612 792" enable-background="new 0 0 612 792" xml:space="preserve">
<image overflow="visible" width="79" height="69" xlink:href="LaneSeparatorRed03.png"  transform="matrix(0.9999 0 0 0.9999 0 0)">
</image>
<polygon fill="none" points="8,46 8,42 15,42 15,38 23,38 23,34 27,34 27,31 34,31 34,27 42,27 42,23 46,23 46,21 50,21 50,19 
	54,19 54,16 58,16 58,14 61,14 61,12 65,12 65,8 69,8 69,26 64,26 64,30 57,30 57,34 46,34 46,38 41,38 41,42 34,42 34,46 30,46 
	30,49 23,49 23,53 16,53 16,57 11,57 11,60 7,60 7,61 4,61 4,65 0.063,65.125 0,50.875 4,51 4,46 "/>
</svg>
