<?xml version="1.0" encoding="utf-8"?>
<!-- Generator: Adobe Illustrator 16.2.0, SVG Export Plug-In . SVG Version: 6.00 Build 0)  -->
<!DOCTYPE svg PUBLIC "-//W3C//DTD SVG 1.1//EN" "http://www.w3.org/Graphics/SVG/1.1/DTD/svg11.dtd">
<svg version="1.1" id="Layer_1" xmlns="http://www.w3.org/2000/svg" xmlns:xlink="http://www.w3.org/1999/xlink" x="0px" y="0px"
	 width="612px" height="792px" viewBox="0 0 612 792" enable-background="new 0 0 612 792" xml:space="preserve">
<image overflow="visible" width="163" height="119" xlink:href="LaneSeparatorRed02.png"  transform="matrix(0.9999 0 0 0.9999 0 0)">
</image>
<polygon fill="none" stroke="#00FF00" stroke-width="0.25" stroke-miterlimit="10" points="4,89 14,89 14,88 16,88 16,85 22,85 
	22,81 27,81 27,77 34,77 34,73 41,73 41,69 49,69 49,66 53,66 53,65 57,65 57,62 61,62 61,58 68,58 68,57 72,57 72,54 76,54 76,51 
	80,51 80,47 88,47 88,43 95,43 95,39 99,39 99,35 106,35 106,32 111,32 111,28 118,28 118,24 125,24 125,20 130,20 130,16 137,16 
	137,12 148,12 148,16 145,16 145,19 141,19 141,23 133,23 133,26 129,26 129,30 125,30 125,34 118,34 118,38 110,38 110,42 106,42 
	106,46 99,46 99,50 95,50 95,53 87,53 87,56 87,57 80,57 80,61 76,61 76,65 68,65 68,69 64,69 64,72 56,72 56,76 49,76 49,79 45,79 
	45,81 41,81 41,84 37,84 37,88 30,88 30,92 26,92 26,95 22,95 22,99 14,99 14,103 7,103 7,107 4,107 "/>
</svg>
