<?xml version="1.0" encoding="utf-8"?>
<!-- Generator: Adobe Illustrator 16.2.0, SVG Export Plug-In . SVG Version: 6.00 Build 0)  -->
<!DOCTYPE svg PUBLIC "-//W3C//DTD SVG 1.1//EN" "http://www.w3.org/Graphics/SVG/1.1/DTD/svg11.dtd">
<svg version="1.1" id="Layer_1" xmlns="http://www.w3.org/2000/svg" xmlns:xlink="http://www.w3.org/1999/xlink" x="0px" y="0px"
	 width="612px" height="792px" viewBox="0 0 612 792" enable-background="new 0 0 612 792" xml:space="preserve">
<image overflow="visible" width="80" height="35" xlink:href="LaneSeparatorBlue03.png"  transform="matrix(0.9999 0 0 0.9999 0 0)">
</image>
<polygon fill="none" stroke="#00FF00" stroke-width="0.25" stroke-miterlimit="10" points="9,11 13,11 12.983,7.104 16.225,7.104 
	16.225,10.093 28,10 28,12 34,12 34,14 41.027,13.967 41.027,15.82 41.953,15.82 41.953,16.83 51.006,17.041 51.006,17.925 57,18 
	57,21 66,21 66.039,25.083 50.964,24.873 51,21 36.016,20.789 36.016,18.093 23,18 23,16 21,16.031 21,14 20,14 20,13 9,13 "/>
</svg>
