<?xml version="1.0" encoding="utf-8"?>
<!-- Generator: Adobe Illustrator 16.2.0, SVG Export Plug-In . SVG Version: 6.00 Build 0)  -->
<!DOCTYPE svg PUBLIC "-//W3C//DTD SVG 1.1//EN" "http://www.w3.org/Graphics/SVG/1.1/DTD/svg11.dtd">
<svg version="1.1" id="Layer_1" xmlns="http://www.w3.org/2000/svg" xmlns:xlink="http://www.w3.org/1999/xlink" x="0px" y="0px"
	 width="612px" height="792px" viewBox="0 0 612 792" enable-background="new 0 0 612 792" xml:space="preserve">
<image overflow="visible" enable-background="new    " width="53" height="36" xlink:href="LaneSeparatorBlue01.png"  transform="matrix(0.9999 0 0 0.9999 -2.439916e-004 2.441406e-004)">
</image>
<polygon fill="none" stroke="#00FF00" stroke-width="0.25" stroke-miterlimit="10" points="5.999,27.001 5.999,25.001 9.999,25.001 
	9.999,22.001 13.999,22.001 13.999,21.001 21.999,21.001 21.999,19.001 23.999,19.001 23.999,17.001 26.999,17.001 26.999,14.001 
	28.999,14.001 28.999,13.001 32.999,13.001 32.999,10.001 36.999,10.001 36.999,8.001 39.999,8.001 39.999,6.001 43.999,6.001 
	43.999,13.001 39.999,13.001 39.999,16.001 34.999,16.001 34.999,19.001 30.999,19.001 30.999,24.001 24.999,24.001 24.999,26.001 
	21.999,26.001 21.999,28.001 9.999,28.001 9.999,27.001 "/>
</svg>
