<?xml version="1.0" encoding="utf-8"?>
<!-- Generator: Adobe Illustrator 16.2.0, SVG Export Plug-In . SVG Version: 6.00 Build 0)  -->
<!DOCTYPE svg PUBLIC "-//W3C//DTD SVG 1.1//EN" "http://www.w3.org/Graphics/SVG/1.1/DTD/svg11.dtd">
<svg version="1.1" id="Layer_1" xmlns="http://www.w3.org/2000/svg" xmlns:xlink="http://www.w3.org/1999/xlink" x="0px" y="0px"
	 width="612px" height="792px" viewBox="0 0 612 792" enable-background="new 0 0 612 792" xml:space="preserve">
<image overflow="visible" width="129" height="212" xlink:href="LaneSeparatorRed04.png"  transform="matrix(0.9999 0 0 0.9999 0 0)">
</image>
<polygon fill="none" stroke="#00FF00" stroke-width="0.25" stroke-miterlimit="10" points="10,4 21,4 21,11 25,11 25,18 29,18 
	29,23 32,23 32,26 33,26 33,34 36,34 36,38 37,38 37,41 40,41 40,45 41,45 41,49 44,49 44,56 48,56 48,64 51,64 51,68 52,68 52,72 
	55,72 55,76 56,76 56,80 59,80 59,83 60,83 60,87 63,87 63,93 64,93 64,95 67,95 67,102 70,102 70,106 71,106 71,110 74,110 74,114 
	75,114 75,118 78,118 78,122 79,122 79,125 82,125 82,129 83,129 83,133 86,133 86,141 90,141 90,148 94,148 94,156 98,156 98,163 
	101,163 101,168 105,168 105,175 106,175 106,179 109,179 109,183 113,183 113,187 116,187 116,198 120,198 120,205 91,205 91,202 
	90,202 90,198 87,198 87,194 86,194 86,190 83,190 83,175 79,175 79,171 76,171 76,167 75,167 75,162 72,162 72,156 71,156 71,152 
	68,152 68,145 67,145 67,141 64,141 64,137 62,137 62,133 60,133 60,125 56,125 56,121 53,121 53,117 52,117 52,110 49,110 49,106 
	46,106 46,102 45,102 45,95 41,95 41,83 37,83 37,79 34,79 34,72 33,72 33,66 31,66 31,64 30,64 30,60 29,60 29,57 26,57 26,53 
	25,53 25,49 22,49 22,41 18,41 18,30 14,30 14,18 10,18 10,11 7,11 7,6 10,6 "/>
</svg>
